<?xml version="1.0" encoding="utf-8" standalone="no"?>
<!DOCTYPE svg PUBLIC "-//W3C//DTD SVG 1.1//EN"
  "http://www.w3.org/Graphics/SVG/1.1/DTD/svg11.dtd">
<svg xmlns:xlink="http://www.w3.org/1999/xlink" width="1008pt" height="720pt" viewBox="0 0 1008 720" xmlns="http://www.w3.org/2000/svg" version="1.1">
 <metadata>
  <rdf:RDF xmlns:dc="http://purl.org/dc/elements/1.1/" xmlns:cc="http://creativecommons.org/ns#" xmlns:rdf="http://www.w3.org/1999/02/22-rdf-syntax-ns#">
   <cc:Work>
    <dc:type rdf:resource="http://purl.org/dc/dcmitype/StillImage"/>
    <dc:date>2026-01-09T13:32:36.169079</dc:date>
    <dc:format>image/svg+xml</dc:format>
    <dc:creator>
     <cc:Agent>
      <dc:title>Matplotlib v3.10.6, https://matplotlib.org/</dc:title>
     </cc:Agent>
    </dc:creator>
   </cc:Work>
  </rdf:RDF>
 </metadata>
 <defs>
  <style type="text/css">*{stroke-linejoin: round; stroke-linecap: butt}</style>
 </defs>
 <g id="figure_1">
  <g id="patch_1">
   <path d="M 0 720 
L 1008 720 
L 1008 0 
L 0 0 
z
" style="fill: #ffffff"/>
  </g>
  <g id="patch_2">
   <path d="M 239.4 640.8 
L 793.8 640.8 
L 793.8 86.4 
L 239.4 86.4 
z
" style="fill: #ffffff"/>
  </g>
  <g id="pane3d_1">
   <g id="patch_3">
    <path d="M 390.285329 387.474083 
L 718.556744 412.665371 
L 725.716414 178.138905 
L 385.447374 156.247089 
" style="fill: #f2f2f2; opacity: 0.5; stroke: #f2f2f2; stroke-width: 1.5; stroke-linejoin: miter"/>
   </g>
  </g>
  <g id="pane3d_2">
   <g id="patch_4">
    <path d="M 390.285329 387.474083 
L 312.173182 543.163748 
L 303.64244 291.993604 
L 385.447374 156.247089 
" style="fill: #e6e6e6; opacity: 0.5; stroke: #e6e6e6; stroke-width: 1.5; stroke-linejoin: miter"/>
   </g>
  </g>
  <g id="pane3d_3">
   <g id="patch_5">
    <path d="M 390.285329 387.474083 
L 312.173182 543.163748 
L 675.385909 574.203832 
L 718.556744 412.665371 
" style="fill: #ececec; opacity: 0.5; stroke: #ececec; stroke-width: 1.5; stroke-linejoin: miter"/>
   </g>
  </g>
  <g id="grid3d_1">
   <g id="Line3DCollection_1">
    <path d="M 716.068378 421.976444 
L 385.77478 396.464308 
L 380.741127 164.0566 
" style="fill: none; stroke: #cccccc; stroke-width: 1.5"/>
    <path d="M 709.076627 448.138474 
L 373.106504 421.714155 
L 367.511753 186.009328 
" style="fill: none; stroke: #cccccc; stroke-width: 1.5"/>
    <path d="M 701.830314 475.253038 
L 359.985317 447.866722 
L 353.791557 208.776522 
" style="fill: none; stroke: #cccccc; stroke-width: 1.5"/>
    <path d="M 694.315277 503.373123 
L 346.386489 474.971303 
L 339.552708 232.404365 
" style="fill: none; stroke: #cccccc; stroke-width: 1.5"/>
    <path d="M 686.516286 532.555718 
L 332.283455 503.080844 
L 324.76523 256.942599 
" style="fill: none; stroke: #cccccc; stroke-width: 1.5"/>
    <path d="M 678.416937 562.862203 
L 317.647645 532.252292 
L 309.396792 282.444873 
" style="fill: none; stroke: #cccccc; stroke-width: 1.5"/>
   </g>
  </g>
  <g id="grid3d_2">
   <g id="Line3DCollection_2">
    <path d="M 425.023025 158.793259 
L 428.487094 390.405656 
L 354.369382 546.769826 
" style="fill: none; stroke: #cccccc; stroke-width: 1.5"/>
    <path d="M 461.704056 161.153198 
L 463.889666 393.122421 
L 393.490554 550.113114 
" style="fill: none; stroke: #cccccc; stroke-width: 1.5"/>
    <path d="M 535.500619 165.901032 
L 535.099419 398.587001 
L 472.229145 556.842097 
" style="fill: none; stroke: #cccccc; stroke-width: 1.5"/>
    <path d="M 572.617869 168.289036 
L 570.908143 401.334934 
L 511.848668 560.227974 
" style="fill: none; stroke: #cccccc; stroke-width: 1.5"/>
    <path d="M 647.294654 173.093501 
L 642.937196 406.862386 
L 591.593491 567.04295 
" style="fill: none; stroke: #cccccc; stroke-width: 1.5"/>
    <path d="M 684.855951 175.510074 
L 679.159103 409.642027 
L 631.720948 570.472234 
" style="fill: none; stroke: #cccccc; stroke-width: 1.5"/>
   </g>
  </g>
  <g id="grid3d_3">
   <g id="Line3DCollection_3">
    <path d="M 312.009043 538.330996 
L 390.191881 383.007798 
L 718.694951 408.138186 
" style="fill: none; stroke: #cccccc; stroke-width: 1.5"/>
    <path d="M 310.420269 491.552816 
L 389.288095 339.811912 
L 720.0318 364.347558 
" style="fill: none; stroke: #cccccc; stroke-width: 1.5"/>
    <path d="M 308.807511 444.068489 
L 388.372026 296.028944 
L 721.387143 319.951117 
" style="fill: none; stroke: #cccccc; stroke-width: 1.5"/>
    <path d="M 307.170223 395.861902 
L 387.44342 251.646844 
L 722.761367 274.936206 
" style="fill: none; stroke: #cccccc; stroke-width: 1.5"/>
    <path d="M 305.50784 346.916452 
L 386.50202 206.653229 
L 724.154869 229.28981 
" style="fill: none; stroke: #cccccc; stroke-width: 1.5"/>
    <path d="M 303.81978 297.215019 
L 385.547559 161.035372 
L 725.568058 182.998548 
" style="fill: none; stroke: #cccccc; stroke-width: 1.5"/>
   </g>
  </g>
  <g id="axis3d_1">
   <g id="line2d_1">
    <path d="M 718.556744 412.665371 
L 675.385909 574.203832 
" style="fill: none; stroke: #cccccc; stroke-width: 1.875; stroke-linecap: round"/>
   </g>
   <g id="xtick_1">
    <g id="line2d_2">
     <path d="M 524.091892 356.108108 
" clip-path="url(#p32f68e3e07)" style="fill: none; stroke: #cccccc; stroke-width: 1.5; stroke-linecap: round"/>
    </g>
    <g id="line2d_3">
     <path d="M 713.379525 421.768755 
L 721.448376 422.391999 
" style="fill: none; stroke: #262626; stroke-width: 1.875; stroke-linecap: round"/>
    </g>
    <g id="text_1">
     <!-- 0 -->
     <g style="fill: #262626" transform="translate(724.585941 443.866917) scale(0.165 -0.165)">
      <defs>
       <path id="ArialMT-30" d="M 266 2259 
Q 266 3072 433 3567 
Q 600 4063 929 4331 
Q 1259 4600 1759 4600 
Q 2128 4600 2406 4451 
Q 2684 4303 2865 4023 
Q 3047 3744 3150 3342 
Q 3253 2941 3253 2259 
Q 3253 1453 3087 958 
Q 2922 463 2592 192 
Q 2263 -78 1759 -78 
Q 1097 -78 719 397 
Q 266 969 266 2259 
z
M 844 2259 
Q 844 1131 1108 757 
Q 1372 384 1759 384 
Q 2147 384 2411 759 
Q 2675 1134 2675 2259 
Q 2675 3391 2411 3762 
Q 2147 4134 1753 4134 
Q 1366 4134 1134 3806 
Q 844 3388 844 2259 
z
" transform="scale(0.015625)"/>
      </defs>
      <use xlink:href="#ArialMT-30"/>
     </g>
    </g>
   </g>
   <g id="xtick_2">
    <g id="line2d_4">
     <path d="M 524.091892 356.108108 
" clip-path="url(#p32f68e3e07)" style="fill: none; stroke: #cccccc; stroke-width: 1.5; stroke-linecap: round"/>
    </g>
    <g id="line2d_5">
     <path d="M 706.340717 447.923292 
L 714.550822 448.569024 
" style="fill: none; stroke: #262626; stroke-width: 1.875; stroke-linecap: round"/>
    </g>
    <g id="text_2">
     <!-- 20 -->
     <g style="fill: #262626" transform="translate(713.245653 470.189968) scale(0.165 -0.165)">
      <defs>
       <path id="ArialMT-32" d="M 3222 541 
L 3222 0 
L 194 0 
Q 188 203 259 391 
Q 375 700 629 1000 
Q 884 1300 1366 1694 
Q 2113 2306 2375 2664 
Q 2638 3022 2638 3341 
Q 2638 3675 2398 3904 
Q 2159 4134 1775 4134 
Q 1369 4134 1125 3890 
Q 881 3647 878 3216 
L 300 3275 
Q 359 3922 746 4261 
Q 1134 4600 1788 4600 
Q 2447 4600 2831 4234 
Q 3216 3869 3216 3328 
Q 3216 3053 3103 2787 
Q 2991 2522 2730 2228 
Q 2469 1934 1863 1422 
Q 1356 997 1212 845 
Q 1069 694 975 541 
L 3222 541 
z
" transform="scale(0.015625)"/>
      </defs>
      <use xlink:href="#ArialMT-32"/>
      <use xlink:href="#ArialMT-30" transform="translate(55.615234 0)"/>
     </g>
    </g>
   </g>
   <g id="xtick_3">
    <g id="line2d_6">
     <path d="M 524.091892 356.108108 
" clip-path="url(#p32f68e3e07)" style="fill: none; stroke: #cccccc; stroke-width: 1.5; stroke-linecap: round"/>
    </g>
    <g id="line2d_7">
     <path d="M 699.04567 475.029951 
L 707.402059 475.699409 
" style="fill: none; stroke: #262626; stroke-width: 1.875; stroke-linecap: round"/>
    </g>
    <g id="text_3">
     <!-- 40 -->
     <g style="fill: #262626" transform="translate(706.247468 497.470705) scale(0.165 -0.165)">
      <defs>
       <path id="ArialMT-34" d="M 2069 0 
L 2069 1097 
L 81 1097 
L 81 1613 
L 2172 4581 
L 2631 4581 
L 2631 1613 
L 3250 1613 
L 3250 1097 
L 2631 1097 
L 2631 0 
L 2069 0 
z
M 2069 1613 
L 2069 3678 
L 634 1613 
L 2069 1613 
z
" transform="scale(0.015625)"/>
      </defs>
      <use xlink:href="#ArialMT-34"/>
      <use xlink:href="#ArialMT-30" transform="translate(55.615234 0)"/>
     </g>
    </g>
   </g>
   <g id="xtick_4">
    <g id="line2d_8">
     <path d="M 524.091892 356.108108 
" clip-path="url(#p32f68e3e07)" style="fill: none; stroke: #cccccc; stroke-width: 1.5; stroke-linecap: round"/>
    </g>
    <g id="line2d_9">
     <path d="M 691.480134 503.141687 
L 699.988112 503.836203 
" style="fill: none; stroke: #262626; stroke-width: 1.875; stroke-linecap: round"/>
    </g>
    <g id="text_4">
     <!-- 60 -->
     <g style="fill: #262626" transform="translate(698.989958 525.762361) scale(0.165 -0.165)">
      <defs>
       <path id="ArialMT-36" d="M 3184 3459 
L 2625 3416 
Q 2550 3747 2413 3897 
Q 2184 4138 1850 4138 
Q 1581 4138 1378 3988 
Q 1113 3794 959 3422 
Q 806 3050 800 2363 
Q 1003 2672 1297 2822 
Q 1591 2972 1913 2972 
Q 2475 2972 2870 2558 
Q 3266 2144 3266 1488 
Q 3266 1056 3080 686 
Q 2894 316 2569 119 
Q 2244 -78 1831 -78 
Q 1128 -78 684 439 
Q 241 956 241 2144 
Q 241 3472 731 4075 
Q 1159 4600 1884 4600 
Q 2425 4600 2770 4297 
Q 3116 3994 3184 3459 
z
M 888 1484 
Q 888 1194 1011 928 
Q 1134 663 1356 523 
Q 1578 384 1822 384 
Q 2178 384 2434 671 
Q 2691 959 2691 1453 
Q 2691 1928 2437 2201 
Q 2184 2475 1800 2475 
Q 1419 2475 1153 2201 
Q 888 1928 888 1484 
z
" transform="scale(0.015625)"/>
      </defs>
      <use xlink:href="#ArialMT-36"/>
      <use xlink:href="#ArialMT-30" transform="translate(55.615234 0)"/>
     </g>
    </g>
   </g>
   <g id="xtick_5">
    <g id="line2d_10">
     <path d="M 524.091892 356.108108 
" clip-path="url(#p32f68e3e07)" style="fill: none; stroke: #cccccc; stroke-width: 1.5; stroke-linecap: round"/>
    </g>
    <g id="line2d_11">
     <path d="M 683.628779 532.315455 
L 692.293945 533.036463 
" style="fill: none; stroke: #262626; stroke-width: 1.875; stroke-linecap: round"/>
    </g>
    <g id="text_5">
     <!-- 80 -->
     <g style="fill: #262626" transform="translate(691.458436 555.122186) scale(0.165 -0.165)">
      <defs>
       <path id="ArialMT-38" d="M 1131 2484 
Q 781 2613 612 2850 
Q 444 3088 444 3419 
Q 444 3919 803 4259 
Q 1163 4600 1759 4600 
Q 2359 4600 2725 4251 
Q 3091 3903 3091 3403 
Q 3091 3084 2923 2848 
Q 2756 2613 2416 2484 
Q 2838 2347 3058 2040 
Q 3278 1734 3278 1309 
Q 3278 722 2862 322 
Q 2447 -78 1769 -78 
Q 1091 -78 675 323 
Q 259 725 259 1325 
Q 259 1772 486 2073 
Q 713 2375 1131 2484 
z
M 1019 3438 
Q 1019 3113 1228 2906 
Q 1438 2700 1772 2700 
Q 2097 2700 2305 2904 
Q 2513 3109 2513 3406 
Q 2513 3716 2298 3927 
Q 2084 4138 1766 4138 
Q 1444 4138 1231 3931 
Q 1019 3725 1019 3438 
z
M 838 1322 
Q 838 1081 952 856 
Q 1066 631 1291 507 
Q 1516 384 1775 384 
Q 2178 384 2440 643 
Q 2703 903 2703 1303 
Q 2703 1709 2433 1975 
Q 2163 2241 1756 2241 
Q 1359 2241 1098 1978 
Q 838 1716 838 1322 
z
" transform="scale(0.015625)"/>
      </defs>
      <use xlink:href="#ArialMT-38"/>
      <use xlink:href="#ArialMT-30" transform="translate(55.615234 0)"/>
     </g>
    </g>
   </g>
   <g id="xtick_6">
    <g id="line2d_12">
     <path d="M 524.091892 356.108108 
" clip-path="url(#p32f68e3e07)" style="fill: none; stroke: #cccccc; stroke-width: 1.5; stroke-linecap: round"/>
    </g>
    <g id="line2d_13">
     <path d="M 675.475097 562.612599 
L 684.303365 563.361644 
" style="fill: none; stroke: #262626; stroke-width: 1.875; stroke-linecap: round"/>
    </g>
    <g id="text_6">
     <!-- 100 -->
     <g style="fill: #262626" transform="translate(679.049311 585.61184) scale(0.165 -0.165)">
      <defs>
       <path id="ArialMT-31" d="M 2384 0 
L 1822 0 
L 1822 3584 
Q 1619 3391 1289 3197 
Q 959 3003 697 2906 
L 697 3450 
Q 1169 3672 1522 3987 
Q 1875 4303 2022 4600 
L 2384 4600 
L 2384 0 
z
" transform="scale(0.015625)"/>
      </defs>
      <use xlink:href="#ArialMT-31"/>
      <use xlink:href="#ArialMT-30" transform="translate(55.615234 0)"/>
      <use xlink:href="#ArialMT-30" transform="translate(111.230469 0)"/>
     </g>
    </g>
   </g>
   <g id="text_7">
    <!-- Age -->
    <g style="fill: #262626" transform="translate(711.894787 516.521206) scale(0.18 -0.18)">
     <defs>
      <path id="ArialMT-41" d="M -9 0 
L 1750 4581 
L 2403 4581 
L 4278 0 
L 3588 0 
L 3053 1388 
L 1138 1388 
L 634 0 
L -9 0 
z
M 1313 1881 
L 2866 1881 
L 2388 3150 
Q 2169 3728 2063 4100 
Q 1975 3659 1816 3225 
L 1313 1881 
z
" transform="scale(0.015625)"/>
      <path id="ArialMT-67" d="M 319 -275 
L 866 -356 
Q 900 -609 1056 -725 
Q 1266 -881 1628 -881 
Q 2019 -881 2231 -725 
Q 2444 -569 2519 -288 
Q 2563 -116 2559 434 
Q 2191 0 1641 0 
Q 956 0 581 494 
Q 206 988 206 1678 
Q 206 2153 378 2554 
Q 550 2956 876 3175 
Q 1203 3394 1644 3394 
Q 2231 3394 2613 2919 
L 2613 3319 
L 3131 3319 
L 3131 450 
Q 3131 -325 2973 -648 
Q 2816 -972 2473 -1159 
Q 2131 -1347 1631 -1347 
Q 1038 -1347 672 -1080 
Q 306 -813 319 -275 
z
M 784 1719 
Q 784 1066 1043 766 
Q 1303 466 1694 466 
Q 2081 466 2343 764 
Q 2606 1063 2606 1700 
Q 2606 2309 2336 2618 
Q 2066 2928 1684 2928 
Q 1309 2928 1046 2623 
Q 784 2319 784 1719 
z
" transform="scale(0.015625)"/>
      <path id="ArialMT-65" d="M 2694 1069 
L 3275 997 
Q 3138 488 2766 206 
Q 2394 -75 1816 -75 
Q 1088 -75 661 373 
Q 234 822 234 1631 
Q 234 2469 665 2931 
Q 1097 3394 1784 3394 
Q 2450 3394 2872 2941 
Q 3294 2488 3294 1666 
Q 3294 1616 3291 1516 
L 816 1516 
Q 847 969 1125 678 
Q 1403 388 1819 388 
Q 2128 388 2347 550 
Q 2566 713 2694 1069 
z
M 847 1978 
L 2700 1978 
Q 2663 2397 2488 2606 
Q 2219 2931 1791 2931 
Q 1403 2931 1139 2672 
Q 875 2413 847 1978 
z
" transform="scale(0.015625)"/>
     </defs>
     <use xlink:href="#ArialMT-41"/>
     <use xlink:href="#ArialMT-67" transform="translate(66.699219 0)"/>
     <use xlink:href="#ArialMT-65" transform="translate(122.314453 0)"/>
    </g>
   </g>
  </g>
  <g id="axis3d_2">
   <g id="line2d_14">
    <path d="M 312.173182 543.163748 
L 675.385909 574.203832 
" style="fill: none; stroke: #cccccc; stroke-width: 1.875; stroke-linecap: round"/>
   </g>
   <g id="xtick_7">
    <g id="line2d_15">
     <path d="M 524.091892 356.108108 
" clip-path="url(#p32f68e3e07)" style="fill: none; stroke: #cccccc; stroke-width: 1.5; stroke-linecap: round"/>
    </g>
    <g id="line2d_16">
     <path d="M 355.026508 545.383506 
L 353.05168 549.549748 
" style="fill: none; stroke: #262626; stroke-width: 1.875; stroke-linecap: round"/>
    </g>
    <g id="text_8">
     <!-- Class 1 (M) -->
     <g style="fill: #262626" transform="translate(351.839074 569.684983) rotate(-345) scale(0.09 -0.09)">
      <defs>
       <path id="ArialMT-43" d="M 3763 1606 
L 4369 1453 
Q 4178 706 3683 314 
Q 3188 -78 2472 -78 
Q 1731 -78 1267 223 
Q 803 525 561 1097 
Q 319 1669 319 2325 
Q 319 3041 592 3573 
Q 866 4106 1370 4382 
Q 1875 4659 2481 4659 
Q 3169 4659 3637 4309 
Q 4106 3959 4291 3325 
L 3694 3184 
Q 3534 3684 3231 3912 
Q 2928 4141 2469 4141 
Q 1941 4141 1586 3887 
Q 1231 3634 1087 3207 
Q 944 2781 944 2328 
Q 944 1744 1114 1308 
Q 1284 872 1643 656 
Q 2003 441 2422 441 
Q 2931 441 3284 734 
Q 3638 1028 3763 1606 
z
" transform="scale(0.015625)"/>
       <path id="ArialMT-6c" d="M 409 0 
L 409 4581 
L 972 4581 
L 972 0 
L 409 0 
z
" transform="scale(0.015625)"/>
       <path id="ArialMT-61" d="M 2588 409 
Q 2275 144 1986 34 
Q 1697 -75 1366 -75 
Q 819 -75 525 192 
Q 231 459 231 875 
Q 231 1119 342 1320 
Q 453 1522 633 1644 
Q 813 1766 1038 1828 
Q 1203 1872 1538 1913 
Q 2219 1994 2541 2106 
Q 2544 2222 2544 2253 
Q 2544 2597 2384 2738 
Q 2169 2928 1744 2928 
Q 1347 2928 1158 2789 
Q 969 2650 878 2297 
L 328 2372 
Q 403 2725 575 2942 
Q 747 3159 1072 3276 
Q 1397 3394 1825 3394 
Q 2250 3394 2515 3294 
Q 2781 3194 2906 3042 
Q 3031 2891 3081 2659 
Q 3109 2516 3109 2141 
L 3109 1391 
Q 3109 606 3145 398 
Q 3181 191 3288 0 
L 2700 0 
Q 2613 175 2588 409 
z
M 2541 1666 
Q 2234 1541 1622 1453 
Q 1275 1403 1131 1340 
Q 988 1278 909 1158 
Q 831 1038 831 891 
Q 831 666 1001 516 
Q 1172 366 1500 366 
Q 1825 366 2078 508 
Q 2331 650 2450 897 
Q 2541 1088 2541 1459 
L 2541 1666 
z
" transform="scale(0.015625)"/>
       <path id="ArialMT-73" d="M 197 991 
L 753 1078 
Q 800 744 1014 566 
Q 1228 388 1613 388 
Q 2000 388 2187 545 
Q 2375 703 2375 916 
Q 2375 1106 2209 1216 
Q 2094 1291 1634 1406 
Q 1016 1563 777 1677 
Q 538 1791 414 1992 
Q 291 2194 291 2438 
Q 291 2659 392 2848 
Q 494 3038 669 3163 
Q 800 3259 1026 3326 
Q 1253 3394 1513 3394 
Q 1903 3394 2198 3281 
Q 2494 3169 2634 2976 
Q 2775 2784 2828 2463 
L 2278 2388 
Q 2241 2644 2061 2787 
Q 1881 2931 1553 2931 
Q 1166 2931 1000 2803 
Q 834 2675 834 2503 
Q 834 2394 903 2306 
Q 972 2216 1119 2156 
Q 1203 2125 1616 2013 
Q 2213 1853 2448 1751 
Q 2684 1650 2818 1456 
Q 2953 1263 2953 975 
Q 2953 694 2789 445 
Q 2625 197 2315 61 
Q 2006 -75 1616 -75 
Q 969 -75 630 194 
Q 291 463 197 991 
z
" transform="scale(0.015625)"/>
       <path id="ArialMT-20" transform="scale(0.015625)"/>
       <path id="ArialMT-28" d="M 1497 -1347 
Q 1031 -759 709 28 
Q 388 816 388 1659 
Q 388 2403 628 3084 
Q 909 3875 1497 4659 
L 1900 4659 
Q 1522 4009 1400 3731 
Q 1209 3300 1100 2831 
Q 966 2247 966 1656 
Q 966 153 1900 -1347 
L 1497 -1347 
z
" transform="scale(0.015625)"/>
       <path id="ArialMT-4d" d="M 475 0 
L 475 4581 
L 1388 4581 
L 2472 1338 
Q 2622 884 2691 659 
Q 2769 909 2934 1394 
L 4031 4581 
L 4847 4581 
L 4847 0 
L 4263 0 
L 4263 3834 
L 2931 0 
L 2384 0 
L 1059 3900 
L 1059 0 
L 475 0 
z
" transform="scale(0.015625)"/>
       <path id="ArialMT-29" d="M 791 -1347 
L 388 -1347 
Q 1322 153 1322 1656 
Q 1322 2244 1188 2822 
Q 1081 3291 891 3722 
Q 769 4003 388 4659 
L 791 4659 
Q 1378 3875 1659 3084 
Q 1900 2403 1900 1659 
Q 1900 816 1576 28 
Q 1253 -759 791 -1347 
z
" transform="scale(0.015625)"/>
      </defs>
      <use xlink:href="#ArialMT-43"/>
      <use xlink:href="#ArialMT-6c" transform="translate(72.216797 0)"/>
      <use xlink:href="#ArialMT-61" transform="translate(94.433594 0)"/>
      <use xlink:href="#ArialMT-73" transform="translate(150.048828 0)"/>
      <use xlink:href="#ArialMT-73" transform="translate(200.048828 0)"/>
      <use xlink:href="#ArialMT-20" transform="translate(250.048828 0)"/>
      <use xlink:href="#ArialMT-31" transform="translate(277.832031 0)"/>
      <use xlink:href="#ArialMT-20" transform="translate(333.447266 0)"/>
      <use xlink:href="#ArialMT-28" transform="translate(361.230469 0)"/>
      <use xlink:href="#ArialMT-4d" transform="translate(394.53125 0)"/>
      <use xlink:href="#ArialMT-29" transform="translate(477.832031 0)"/>
     </g>
    </g>
   </g>
   <g id="xtick_8">
    <g id="line2d_17">
     <path d="M 524.091892 356.108108 
" clip-path="url(#p32f68e3e07)" style="fill: none; stroke: #cccccc; stroke-width: 1.5; stroke-linecap: round"/>
    </g>
    <g id="line2d_18">
     <path d="M 394.114839 548.720952 
L 392.238699 552.904763 
" style="fill: none; stroke: #262626; stroke-width: 1.875; stroke-linecap: round"/>
    </g>
    <g id="text_9">
     <!-- Class 1 (F) -->
     <g style="fill: #262626" transform="translate(391.064145 573.072712) rotate(-345) scale(0.09 -0.09)">
      <defs>
       <path id="ArialMT-46" d="M 525 0 
L 525 4581 
L 3616 4581 
L 3616 4041 
L 1131 4041 
L 1131 2622 
L 3281 2622 
L 3281 2081 
L 1131 2081 
L 1131 0 
L 525 0 
z
" transform="scale(0.015625)"/>
      </defs>
      <use xlink:href="#ArialMT-43"/>
      <use xlink:href="#ArialMT-6c" transform="translate(72.216797 0)"/>
      <use xlink:href="#ArialMT-61" transform="translate(94.433594 0)"/>
      <use xlink:href="#ArialMT-73" transform="translate(150.048828 0)"/>
      <use xlink:href="#ArialMT-73" transform="translate(200.048828 0)"/>
      <use xlink:href="#ArialMT-20" transform="translate(250.048828 0)"/>
      <use xlink:href="#ArialMT-31" transform="translate(277.832031 0)"/>
      <use xlink:href="#ArialMT-20" transform="translate(333.447266 0)"/>
      <use xlink:href="#ArialMT-28" transform="translate(361.230469 0)"/>
      <use xlink:href="#ArialMT-46" transform="translate(394.53125 0)"/>
      <use xlink:href="#ArialMT-29" transform="translate(455.615234 0)"/>
     </g>
    </g>
   </g>
   <g id="xtick_9">
    <g id="line2d_19">
     <path d="M 524.091892 356.108108 
" clip-path="url(#p32f68e3e07)" style="fill: none; stroke: #cccccc; stroke-width: 1.5; stroke-linecap: round"/>
    </g>
    <g id="line2d_20">
     <path d="M 472.786897 555.438143 
L 471.110695 559.657425 
" style="fill: none; stroke: #262626; stroke-width: 1.875; stroke-linecap: round"/>
    </g>
    <g id="text_10">
     <!-- Class 2 (M) -->
     <g style="fill: #262626" transform="translate(470.013261 579.891264) rotate(-345) scale(0.09 -0.09)">
      <use xlink:href="#ArialMT-43"/>
      <use xlink:href="#ArialMT-6c" transform="translate(72.216797 0)"/>
      <use xlink:href="#ArialMT-61" transform="translate(94.433594 0)"/>
      <use xlink:href="#ArialMT-73" transform="translate(150.048828 0)"/>
      <use xlink:href="#ArialMT-73" transform="translate(200.048828 0)"/>
      <use xlink:href="#ArialMT-20" transform="translate(250.048828 0)"/>
      <use xlink:href="#ArialMT-32" transform="translate(277.832031 0)"/>
      <use xlink:href="#ArialMT-20" transform="translate(333.447266 0)"/>
      <use xlink:href="#ArialMT-28" transform="translate(361.230469 0)"/>
      <use xlink:href="#ArialMT-4d" transform="translate(394.53125 0)"/>
      <use xlink:href="#ArialMT-29" transform="translate(477.832031 0)"/>
     </g>
    </g>
   </g>
   <g id="xtick_10">
    <g id="line2d_21">
     <path d="M 524.091892 356.108108 
" clip-path="url(#p32f68e3e07)" style="fill: none; stroke: #cccccc; stroke-width: 1.5; stroke-linecap: round"/>
    </g>
    <g id="line2d_22">
     <path d="M 512.372721 558.818067 
L 510.797787 563.055254 
" style="fill: none; stroke: #262626; stroke-width: 1.875; stroke-linecap: round"/>
    </g>
    <g id="text_11">
     <!-- Class 2 (F) -->
     <g style="fill: #262626" transform="translate(509.739427 583.322271) rotate(-345) scale(0.09 -0.09)">
      <use xlink:href="#ArialMT-43"/>
      <use xlink:href="#ArialMT-6c" transform="translate(72.216797 0)"/>
      <use xlink:href="#ArialMT-61" transform="translate(94.433594 0)"/>
      <use xlink:href="#ArialMT-73" transform="translate(150.048828 0)"/>
      <use xlink:href="#ArialMT-73" transform="translate(200.048828 0)"/>
      <use xlink:href="#ArialMT-20" transform="translate(250.048828 0)"/>
      <use xlink:href="#ArialMT-32" transform="translate(277.832031 0)"/>
      <use xlink:href="#ArialMT-20" transform="translate(333.447266 0)"/>
      <use xlink:href="#ArialMT-28" transform="translate(361.230469 0)"/>
      <use xlink:href="#ArialMT-46" transform="translate(394.53125 0)"/>
      <use xlink:href="#ArialMT-29" transform="translate(455.615234 0)"/>
     </g>
    </g>
   </g>
   <g id="xtick_11">
    <g id="line2d_23">
     <path d="M 524.091892 356.108108 
" clip-path="url(#p32f68e3e07)" style="fill: none; stroke: #cccccc; stroke-width: 1.5; stroke-linecap: round"/>
    </g>
    <g id="line2d_24">
     <path d="M 592.04927 565.621024 
L 590.679509 569.894365 
" style="fill: none; stroke: #262626; stroke-width: 1.875; stroke-linecap: round"/>
    </g>
    <g id="text_12">
     <!-- Class 3 (M) -->
     <g style="fill: #262626" transform="translate(589.700342 590.228209) rotate(-345) scale(0.09 -0.09)">
      <defs>
       <path id="ArialMT-33" d="M 269 1209 
L 831 1284 
Q 928 806 1161 595 
Q 1394 384 1728 384 
Q 2125 384 2398 659 
Q 2672 934 2672 1341 
Q 2672 1728 2419 1979 
Q 2166 2231 1775 2231 
Q 1616 2231 1378 2169 
L 1441 2663 
Q 1497 2656 1531 2656 
Q 1891 2656 2178 2843 
Q 2466 3031 2466 3422 
Q 2466 3731 2256 3934 
Q 2047 4138 1716 4138 
Q 1388 4138 1169 3931 
Q 950 3725 888 3313 
L 325 3413 
Q 428 3978 793 4289 
Q 1159 4600 1703 4600 
Q 2078 4600 2393 4439 
Q 2709 4278 2876 4000 
Q 3044 3722 3044 3409 
Q 3044 3113 2884 2869 
Q 2725 2625 2413 2481 
Q 2819 2388 3044 2092 
Q 3269 1797 3269 1353 
Q 3269 753 2831 336 
Q 2394 -81 1725 -81 
Q 1122 -81 723 278 
Q 325 638 269 1209 
z
" transform="scale(0.015625)"/>
      </defs>
      <use xlink:href="#ArialMT-43"/>
      <use xlink:href="#ArialMT-6c" transform="translate(72.216797 0)"/>
      <use xlink:href="#ArialMT-61" transform="translate(94.433594 0)"/>
      <use xlink:href="#ArialMT-73" transform="translate(150.048828 0)"/>
      <use xlink:href="#ArialMT-73" transform="translate(200.048828 0)"/>
      <use xlink:href="#ArialMT-20" transform="translate(250.048828 0)"/>
      <use xlink:href="#ArialMT-33" transform="translate(277.832031 0)"/>
      <use xlink:href="#ArialMT-20" transform="translate(333.447266 0)"/>
      <use xlink:href="#ArialMT-28" transform="translate(361.230469 0)"/>
      <use xlink:href="#ArialMT-4d" transform="translate(394.53125 0)"/>
      <use xlink:href="#ArialMT-29" transform="translate(477.832031 0)"/>
     </g>
    </g>
   </g>
   <g id="xtick_12">
    <g id="line2d_25">
     <path d="M 524.091892 356.108108 
" clip-path="url(#p32f68e3e07)" style="fill: none; stroke: #cccccc; stroke-width: 1.5; stroke-linecap: round"/>
    </g>
    <g id="line2d_26">
     <path d="M 632.142146 569.044241 
L 630.876307 573.335832 
" style="fill: none; stroke: #262626; stroke-width: 1.875; stroke-linecap: round"/>
    </g>
    <g id="text_13">
     <!-- Class 3 (F) -->
     <g style="fill: #262626" transform="translate(629.937267 593.703328) rotate(-345) scale(0.09 -0.09)">
      <use xlink:href="#ArialMT-43"/>
      <use xlink:href="#ArialMT-6c" transform="translate(72.216797 0)"/>
      <use xlink:href="#ArialMT-61" transform="translate(94.433594 0)"/>
      <use xlink:href="#ArialMT-73" transform="translate(150.048828 0)"/>
      <use xlink:href="#ArialMT-73" transform="translate(200.048828 0)"/>
      <use xlink:href="#ArialMT-20" transform="translate(250.048828 0)"/>
      <use xlink:href="#ArialMT-33" transform="translate(277.832031 0)"/>
      <use xlink:href="#ArialMT-20" transform="translate(333.447266 0)"/>
      <use xlink:href="#ArialMT-28" transform="translate(361.230469 0)"/>
      <use xlink:href="#ArialMT-46" transform="translate(394.53125 0)"/>
      <use xlink:href="#ArialMT-29" transform="translate(455.615234 0)"/>
     </g>
    </g>
   </g>
   <g id="text_14">
    <!-- Passenger Class -->
    <g style="fill: #262626" transform="translate(418.053171 593.901032) rotate(-355.115383) scale(0.18 -0.18)">
     <defs>
      <path id="ArialMT-50" d="M 494 0 
L 494 4581 
L 2222 4581 
Q 2678 4581 2919 4538 
Q 3256 4481 3484 4323 
Q 3713 4166 3852 3881 
Q 3991 3597 3991 3256 
Q 3991 2672 3619 2267 
Q 3247 1863 2275 1863 
L 1100 1863 
L 1100 0 
L 494 0 
z
M 1100 2403 
L 2284 2403 
Q 2872 2403 3119 2622 
Q 3366 2841 3366 3238 
Q 3366 3525 3220 3729 
Q 3075 3934 2838 4000 
Q 2684 4041 2272 4041 
L 1100 4041 
L 1100 2403 
z
" transform="scale(0.015625)"/>
      <path id="ArialMT-6e" d="M 422 0 
L 422 3319 
L 928 3319 
L 928 2847 
Q 1294 3394 1984 3394 
Q 2284 3394 2536 3286 
Q 2788 3178 2913 3003 
Q 3038 2828 3088 2588 
Q 3119 2431 3119 2041 
L 3119 0 
L 2556 0 
L 2556 2019 
Q 2556 2363 2490 2533 
Q 2425 2703 2258 2804 
Q 2091 2906 1866 2906 
Q 1506 2906 1245 2678 
Q 984 2450 984 1813 
L 984 0 
L 422 0 
z
" transform="scale(0.015625)"/>
      <path id="ArialMT-72" d="M 416 0 
L 416 3319 
L 922 3319 
L 922 2816 
Q 1116 3169 1280 3281 
Q 1444 3394 1641 3394 
Q 1925 3394 2219 3213 
L 2025 2691 
Q 1819 2813 1613 2813 
Q 1428 2813 1281 2702 
Q 1134 2591 1072 2394 
Q 978 2094 978 1738 
L 978 0 
L 416 0 
z
" transform="scale(0.015625)"/>
     </defs>
     <use xlink:href="#ArialMT-50"/>
     <use xlink:href="#ArialMT-61" transform="translate(66.699219 0)"/>
     <use xlink:href="#ArialMT-73" transform="translate(122.314453 0)"/>
     <use xlink:href="#ArialMT-73" transform="translate(172.314453 0)"/>
     <use xlink:href="#ArialMT-65" transform="translate(222.314453 0)"/>
     <use xlink:href="#ArialMT-6e" transform="translate(277.929688 0)"/>
     <use xlink:href="#ArialMT-67" transform="translate(333.544922 0)"/>
     <use xlink:href="#ArialMT-65" transform="translate(389.160156 0)"/>
     <use xlink:href="#ArialMT-72" transform="translate(444.775391 0)"/>
     <use xlink:href="#ArialMT-20" transform="translate(478.076172 0)"/>
     <use xlink:href="#ArialMT-43" transform="translate(505.859375 0)"/>
     <use xlink:href="#ArialMT-6c" transform="translate(578.076172 0)"/>
     <use xlink:href="#ArialMT-61" transform="translate(600.292969 0)"/>
     <use xlink:href="#ArialMT-73" transform="translate(655.908203 0)"/>
     <use xlink:href="#ArialMT-73" transform="translate(705.908203 0)"/>
    </g>
   </g>
  </g>
  <g id="axis3d_3">
   <g id="line2d_27">
    <path d="M 312.173182 543.163748 
L 303.64244 291.993604 
" style="fill: none; stroke: #cccccc; stroke-width: 1.875; stroke-linecap: round"/>
   </g>
   <g id="xtick_13">
    <g id="line2d_28">
     <path d="M 524.091892 356.108108 
" style="fill: none; stroke: #cccccc; stroke-width: 1.5; stroke-linecap: round"/>
    </g>
    <g id="line2d_29">
     <path d="M 312.702109 536.954105 
L 310.619277 541.091996 
" style="fill: none; stroke: #262626; stroke-width: 1.875; stroke-linecap: round"/>
    </g>
    <g id="text_15">
     <!-- 0 -->
     <g style="fill: #262626" transform="translate(289.70602 555.812589) scale(0.165 -0.165)">
      <use xlink:href="#ArialMT-30"/>
     </g>
    </g>
   </g>
   <g id="xtick_14">
    <g id="line2d_30">
     <path d="M 524.091892 356.108108 
" style="fill: none; stroke: #cccccc; stroke-width: 1.5; stroke-linecap: round"/>
    </g>
    <g id="line2d_31">
     <path d="M 311.119917 490.2067 
L 309.017276 494.25216 
" style="fill: none; stroke: #262626; stroke-width: 1.875; stroke-linecap: round"/>
    </g>
    <g id="text_16">
     <!-- 20 -->
     <g style="fill: #262626" transform="translate(283.390536 508.907842) scale(0.165 -0.165)">
      <use xlink:href="#ArialMT-32"/>
      <use xlink:href="#ArialMT-30" transform="translate(55.615234 0)"/>
     </g>
    </g>
   </g>
   <g id="xtick_15">
    <g id="line2d_32">
     <path d="M 524.091892 356.108108 
" style="fill: none; stroke: #cccccc; stroke-width: 1.5; stroke-linecap: round"/>
    </g>
    <g id="line2d_33">
     <path d="M 309.513863 442.754235 
L 307.391048 446.703992 
" style="fill: none; stroke: #262626; stroke-width: 1.875; stroke-linecap: round"/>
    </g>
    <g id="text_17">
     <!-- 40 -->
     <g style="fill: #262626" transform="translate(281.636649 461.292456) scale(0.165 -0.165)">
      <use xlink:href="#ArialMT-34"/>
      <use xlink:href="#ArialMT-30" transform="translate(55.615234 0)"/>
     </g>
    </g>
   </g>
   <g id="xtick_16">
    <g id="line2d_34">
     <path d="M 524.091892 356.108108 
" style="fill: none; stroke: #cccccc; stroke-width: 1.5; stroke-linecap: round"/>
    </g>
    <g id="line2d_35">
     <path d="M 307.883401 394.58064 
L 305.740041 398.4313 
" style="fill: none; stroke: #262626; stroke-width: 1.875; stroke-linecap: round"/>
    </g>
    <g id="text_18">
     <!-- 60 -->
     <g style="fill: #262626" transform="translate(279.855986 412.950157) scale(0.165 -0.165)">
      <use xlink:href="#ArialMT-36"/>
      <use xlink:href="#ArialMT-30" transform="translate(55.615234 0)"/>
     </g>
    </g>
   </g>
   <g id="xtick_17">
    <g id="line2d_36">
     <path d="M 524.091892 356.108108 
" style="fill: none; stroke: #cccccc; stroke-width: 1.5; stroke-linecap: round"/>
    </g>
    <g id="line2d_37">
     <path d="M 306.227972 345.669349 
L 304.063683 349.417398 
" style="fill: none; stroke: #262626; stroke-width: 1.875; stroke-linecap: round"/>
    </g>
    <g id="text_19">
     <!-- 80 -->
     <g style="fill: #262626" transform="translate(278.04793 363.864173) scale(0.165 -0.165)">
      <use xlink:href="#ArialMT-38"/>
      <use xlink:href="#ArialMT-30" transform="translate(55.615234 0)"/>
     </g>
    </g>
   </g>
   <g id="xtick_18">
    <g id="line2d_38">
     <path d="M 524.091892 356.108108 
" style="fill: none; stroke: #cccccc; stroke-width: 1.5; stroke-linecap: round"/>
    </g>
    <g id="line2d_39">
     <path d="M 304.546997 296.003288 
L 302.361386 299.645082 
" style="fill: none; stroke: #262626; stroke-width: 1.875; stroke-linecap: round"/>
    </g>
    <g id="text_20">
     <!-- 100 -->
     <g style="fill: #262626" transform="translate(271.624071 314.017209) scale(0.165 -0.165)">
      <use xlink:href="#ArialMT-31"/>
      <use xlink:href="#ArialMT-30" transform="translate(55.615234 0)"/>
      <use xlink:href="#ArialMT-30" transform="translate(111.230469 0)"/>
     </g>
    </g>
   </g>
   <g id="text_21">
    <!-- Survival Rate (%) -->
    <g style="fill: #262626" transform="translate(261.515627 361.911716) rotate(-271.945246) scale(0.18 -0.18)">
     <defs>
      <path id="ArialMT-53" d="M 288 1472 
L 859 1522 
Q 900 1178 1048 958 
Q 1197 738 1509 602 
Q 1822 466 2213 466 
Q 2559 466 2825 569 
Q 3091 672 3220 851 
Q 3350 1031 3350 1244 
Q 3350 1459 3225 1620 
Q 3100 1781 2813 1891 
Q 2628 1963 1997 2114 
Q 1366 2266 1113 2400 
Q 784 2572 623 2826 
Q 463 3081 463 3397 
Q 463 3744 659 4045 
Q 856 4347 1234 4503 
Q 1613 4659 2075 4659 
Q 2584 4659 2973 4495 
Q 3363 4331 3572 4012 
Q 3781 3694 3797 3291 
L 3216 3247 
Q 3169 3681 2898 3903 
Q 2628 4125 2100 4125 
Q 1550 4125 1298 3923 
Q 1047 3722 1047 3438 
Q 1047 3191 1225 3031 
Q 1400 2872 2139 2705 
Q 2878 2538 3153 2413 
Q 3553 2228 3743 1945 
Q 3934 1663 3934 1294 
Q 3934 928 3725 604 
Q 3516 281 3123 101 
Q 2731 -78 2241 -78 
Q 1619 -78 1198 103 
Q 778 284 539 648 
Q 300 1013 288 1472 
z
" transform="scale(0.015625)"/>
      <path id="ArialMT-75" d="M 2597 0 
L 2597 488 
Q 2209 -75 1544 -75 
Q 1250 -75 995 37 
Q 741 150 617 320 
Q 494 491 444 738 
Q 409 903 409 1263 
L 409 3319 
L 972 3319 
L 972 1478 
Q 972 1038 1006 884 
Q 1059 663 1231 536 
Q 1403 409 1656 409 
Q 1909 409 2131 539 
Q 2353 669 2445 892 
Q 2538 1116 2538 1541 
L 2538 3319 
L 3100 3319 
L 3100 0 
L 2597 0 
z
" transform="scale(0.015625)"/>
      <path id="ArialMT-76" d="M 1344 0 
L 81 3319 
L 675 3319 
L 1388 1331 
Q 1503 1009 1600 663 
Q 1675 925 1809 1294 
L 2547 3319 
L 3125 3319 
L 1869 0 
L 1344 0 
z
" transform="scale(0.015625)"/>
      <path id="ArialMT-69" d="M 425 3934 
L 425 4581 
L 988 4581 
L 988 3934 
L 425 3934 
z
M 425 0 
L 425 3319 
L 988 3319 
L 988 0 
L 425 0 
z
" transform="scale(0.015625)"/>
      <path id="ArialMT-52" d="M 503 0 
L 503 4581 
L 2534 4581 
Q 3147 4581 3465 4457 
Q 3784 4334 3975 4021 
Q 4166 3709 4166 3331 
Q 4166 2844 3850 2509 
Q 3534 2175 2875 2084 
Q 3116 1969 3241 1856 
Q 3506 1613 3744 1247 
L 4541 0 
L 3778 0 
L 3172 953 
Q 2906 1366 2734 1584 
Q 2563 1803 2427 1890 
Q 2291 1978 2150 2013 
Q 2047 2034 1813 2034 
L 1109 2034 
L 1109 0 
L 503 0 
z
M 1109 2559 
L 2413 2559 
Q 2828 2559 3062 2645 
Q 3297 2731 3419 2920 
Q 3541 3109 3541 3331 
Q 3541 3656 3305 3865 
Q 3069 4075 2559 4075 
L 1109 4075 
L 1109 2559 
z
" transform="scale(0.015625)"/>
      <path id="ArialMT-74" d="M 1650 503 
L 1731 6 
Q 1494 -44 1306 -44 
Q 1000 -44 831 53 
Q 663 150 594 308 
Q 525 466 525 972 
L 525 2881 
L 113 2881 
L 113 3319 
L 525 3319 
L 525 4141 
L 1084 4478 
L 1084 3319 
L 1650 3319 
L 1650 2881 
L 1084 2881 
L 1084 941 
Q 1084 700 1114 631 
Q 1144 563 1211 522 
Q 1278 481 1403 481 
Q 1497 481 1650 503 
z
" transform="scale(0.015625)"/>
      <path id="ArialMT-25" d="M 372 3481 
Q 372 3972 619 4315 
Q 866 4659 1334 4659 
Q 1766 4659 2048 4351 
Q 2331 4044 2331 3447 
Q 2331 2866 2045 2552 
Q 1759 2238 1341 2238 
Q 925 2238 648 2547 
Q 372 2856 372 3481 
z
M 1350 4272 
Q 1141 4272 1002 4090 
Q 863 3909 863 3425 
Q 863 2984 1003 2804 
Q 1144 2625 1350 2625 
Q 1563 2625 1702 2806 
Q 1841 2988 1841 3469 
Q 1841 3913 1700 4092 
Q 1559 4272 1350 4272 
z
M 1353 -169 
L 3859 4659 
L 4316 4659 
L 1819 -169 
L 1353 -169 
z
M 3334 1075 
Q 3334 1569 3581 1911 
Q 3828 2253 4300 2253 
Q 4731 2253 5014 1945 
Q 5297 1638 5297 1041 
Q 5297 459 5011 145 
Q 4725 -169 4303 -169 
Q 3888 -169 3611 142 
Q 3334 453 3334 1075 
z
M 4316 1866 
Q 4103 1866 3964 1684 
Q 3825 1503 3825 1019 
Q 3825 581 3965 400 
Q 4106 219 4313 219 
Q 4528 219 4667 400 
Q 4806 581 4806 1063 
Q 4806 1506 4665 1686 
Q 4525 1866 4316 1866 
z
" transform="scale(0.015625)"/>
     </defs>
     <use xlink:href="#ArialMT-53"/>
     <use xlink:href="#ArialMT-75" transform="translate(66.699219 0)"/>
     <use xlink:href="#ArialMT-72" transform="translate(122.314453 0)"/>
     <use xlink:href="#ArialMT-76" transform="translate(155.615234 0)"/>
     <use xlink:href="#ArialMT-69" transform="translate(205.615234 0)"/>
     <use xlink:href="#ArialMT-76" transform="translate(227.832031 0)"/>
     <use xlink:href="#ArialMT-61" transform="translate(277.832031 0)"/>
     <use xlink:href="#ArialMT-6c" transform="translate(333.447266 0)"/>
     <use xlink:href="#ArialMT-20" transform="translate(355.664062 0)"/>
     <use xlink:href="#ArialMT-52" transform="translate(383.447266 0)"/>
     <use xlink:href="#ArialMT-61" transform="translate(455.664062 0)"/>
     <use xlink:href="#ArialMT-74" transform="translate(511.279297 0)"/>
     <use xlink:href="#ArialMT-65" transform="translate(539.0625 0)"/>
     <use xlink:href="#ArialMT-20" transform="translate(594.677734 0)"/>
     <use xlink:href="#ArialMT-28" transform="translate(622.460938 0)"/>
     <use xlink:href="#ArialMT-25" transform="translate(655.761719 0)"/>
     <use xlink:href="#ArialMT-29" transform="translate(744.677734 0)"/>
    </g>
   </g>
  </g>
  <g id="axes_1">
   <g id="Poly3DCollection_1">
    <path d="M 441.942274 396.308605 
L 441.942274 396.308605 
L 477.653463 399.058369 
L 477.653463 399.058369 
z
" clip-path="url(#p32f68e3e07)" style="fill: #9d5c1c"/>
    <path d="M 406.367176 393.56932 
L 441.942274 396.308605 
L 436.130409 408.869333 
L 400.256252 406.082017 
z
" clip-path="url(#p32f68e3e07)" style="fill: #2a4159"/>
    <path d="M 441.942274 396.308605 
L 436.130409 408.869333 
L 436.130409 408.869333 
L 441.942274 396.308605 
z
" clip-path="url(#p32f68e3e07)" style="fill: #9d5c1c"/>
    <path d="M 441.942274 396.308605 
L 477.653463 399.058369 
L 472.143003 411.667404 
L 436.130409 408.869333 
z
" clip-path="url(#p32f68e3e07)" style="fill: #814c17"/>
    <path d="M 441.942274 396.308605 
L 436.130409 408.869333 
L 472.143003 411.667404 
L 477.653463 399.058369 
z
" clip-path="url(#p32f68e3e07)" style="fill: #ba6d21"/>
    <path d="M 477.653463 399.058369 
L 477.653463 399.058369 
L 472.143003 411.667404 
L 472.143003 411.667404 
z
" clip-path="url(#p32f68e3e07)" style="fill: #9d5c1c"/>
    <path d="M 513.501526 401.818672 
L 549.487251 404.589576 
L 544.586718 417.296065 
L 508.294836 414.476294 
z
" clip-path="url(#p32f68e3e07)" style="fill: #2a4159"/>
    <path d="M 436.130409 408.869333 
L 472.143003 411.667404 
L 472.143003 411.667404 
L 436.130409 408.869333 
z
" clip-path="url(#p32f68e3e07)" style="fill: #9d5c1c"/>
    <path d="M 549.487251 404.589576 
L 585.611432 407.37114 
L 581.019464 420.126781 
L 544.586718 417.296065 
z
" clip-path="url(#p32f68e3e07)" style="fill: #814c17"/>
    <path d="M 400.256252 406.082017 
L 436.130409 408.869333 
L 430.21609 421.651487 
L 394.03781 418.814867 
z
" clip-path="url(#p32f68e3e07)" style="fill: #2a4159"/>
    <path d="M 436.130409 408.869333 
L 472.143003 411.667404 
L 466.535213 424.49915 
L 430.21609 421.651487 
z
" clip-path="url(#p32f68e3e07)" style="fill: #814c17"/>
    <path d="M 400.256252 406.082017 
L 398.545539 317.993373 
L 434.912903 320.647283 
L 436.130409 408.869333 
z
" clip-path="url(#p32f68e3e07)" style="fill: #456b94"/>
    <path d="M 621.874871 410.163427 
L 658.278373 412.9665 
L 654.310842 425.821303 
L 617.593896 422.968506 
z
" clip-path="url(#p32f68e3e07)" style="fill: #2a4159"/>
    <path d="M 508.294836 414.476294 
L 508.240525 392.581975 
L 544.657318 395.368905 
L 544.586718 417.296065 
z
" clip-path="url(#p32f68e3e07)" style="fill: #456b94"/>
    <path d="M 406.367176 393.56932 
L 402.252557 170.262537 
L 439.065374 172.656513 
L 441.942274 396.308605 
z
" clip-path="url(#p32f68e3e07)" style="fill: #456b94"/>
    <path d="M 658.278373 412.9665 
L 694.822753 415.78042 
L 691.171136 428.685238 
L 654.310842 425.821303 
z
" clip-path="url(#p32f68e3e07)" style="fill: #814c17"/>
    <path d="M 621.874871 410.163427 
L 623.164185 326.138917 
L 660.051146 328.81461 
L 658.278373 412.9665 
z
" clip-path="url(#p32f68e3e07)" style="fill: #456b94"/>
    <path d="M 508.294836 414.476294 
L 544.586718 417.296065 
L 539.599291 430.227864 
L 502.996003 427.35792 
z
" clip-path="url(#p32f68e3e07)" style="fill: #2a4159"/>
    <path d="M 400.256252 406.082017 
L 394.03781 418.814867 
L 392.225168 330.117959 
L 398.545539 317.993373 
z
" clip-path="url(#p32f68e3e07)" style="fill: #456b94"/>
    <path d="M 508.294836 414.476294 
L 502.996003 427.35792 
L 502.92283 405.313876 
L 508.240525 392.581975 
z
" clip-path="url(#p32f68e3e07)" style="fill: #456b94"/>
    <path d="M 406.367176 393.56932 
L 400.256252 406.082017 
L 395.888974 181.20051 
L 402.252557 170.262537 
z
" clip-path="url(#p32f68e3e07)" style="fill: #456b94"/>
    <path d="M 544.586718 417.296065 
L 581.019464 420.126781 
L 576.345913 433.109046 
L 539.599291 430.227864 
z
" clip-path="url(#p32f68e3e07)" style="fill: #814c17"/>
    <path d="M 436.130409 408.869333 
L 434.912903 320.647283 
L 428.905109 332.819472 
L 430.21609 421.651487 
z
" clip-path="url(#p32f68e3e07)" style="fill: #203246"/>
    <path d="M 621.874871 410.163427 
L 617.593896 422.968506 
L 618.837785 338.363206 
L 623.164185 326.138917 
z
" clip-path="url(#p32f68e3e07)" style="fill: #456b94"/>
    <path d="M 544.586718 417.296065 
L 544.657318 395.368905 
L 539.653185 408.150567 
L 539.599291 430.227864 
z
" clip-path="url(#p32f68e3e07)" style="fill: #203246"/>
    <path d="M 394.03781 418.814867 
L 430.21609 421.651487 
L 424.196583 434.660975 
L 387.708988 431.77373 
z
" clip-path="url(#p32f68e3e07)" style="fill: #2a4159"/>
    <path d="M 617.593896 422.968506 
L 617.901796 402.026133 
L 654.740488 404.847407 
L 654.310842 425.821303 
z
" clip-path="url(#p32f68e3e07)" style="fill: #456b94"/>
    <path d="M 508.240525 392.581975 
L 502.92283 405.313876 
L 539.653185 408.150567 
L 544.657318 395.368905 
z
" clip-path="url(#p32f68e3e07)" style="fill: #3c5d80"/>
    <path d="M 658.278373 412.9665 
L 660.728073 296.681549 
L 697.945745 299.317821 
L 694.822753 415.78042 
z
" clip-path="url(#p32f68e3e07)" style="fill: #d67d26"/>
    <path d="M 441.942274 396.308605 
L 439.065374 172.656513 
L 433.02211 183.63795 
L 436.130409 408.869333 
z
" clip-path="url(#p32f68e3e07)" style="fill: #203246"/>
    <path d="M 513.501526 401.818672 
L 513.129177 177.472959 
L 550.381906 179.895542 
L 549.487251 404.589576 
z
" clip-path="url(#p32f68e3e07)" style="fill: #456b94"/>
    <path d="M 502.996003 427.35792 
L 502.996003 427.35792 
L 539.599291 430.227864 
L 539.599291 430.227864 
z
" clip-path="url(#p32f68e3e07)" style="fill: #334f6d"/>
    <path d="M 658.278373 412.9665 
L 660.051146 328.81461 
L 656.046608 341.086999 
L 654.310842 425.821303 
z
" clip-path="url(#p32f68e3e07)" style="fill: #203246"/>
    <path d="M 430.21609 421.651487 
L 466.535213 424.49915 
L 460.827491 437.559559 
L 424.196583 434.660975 
z
" clip-path="url(#p32f68e3e07)" style="fill: #814c17"/>
    <path d="M 394.03781 418.814867 
L 430.21609 421.651487 
L 428.905109 332.819472 
L 392.225168 330.117959 
z
" clip-path="url(#p32f68e3e07)" style="fill: #203246"/>
    <path d="M 617.593896 422.968506 
L 654.310842 425.821303 
L 650.272544 438.905389 
L 613.236714 436.001532 
z
" clip-path="url(#p32f68e3e07)" style="fill: #2a4159"/>
    <path d="M 502.996003 427.35792 
L 539.599291 430.227864 
L 539.653185 408.150567 
L 502.92283 405.313876 
z
" clip-path="url(#p32f68e3e07)" style="fill: #203246"/>
    <path d="M 549.487251 404.589576 
L 550.381906 179.895542 
L 587.783025 182.327776 
L 585.611432 407.37114 
z
" clip-path="url(#p32f68e3e07)" style="fill: #d67d26"/>
    <path d="M 617.593896 422.968506 
L 613.236714 436.001532 
L 613.532888 414.915439 
L 617.901796 402.026133 
z
" clip-path="url(#p32f68e3e07)" style="fill: #456b94"/>
    <path d="M 658.278373 412.9665 
L 654.310842 425.821303 
L 656.709511 308.726323 
L 660.728073 296.681549 
z
" clip-path="url(#p32f68e3e07)" style="fill: #d67d26"/>
    <path d="M 394.03781 418.814867 
L 391.764085 307.556062 
L 428.571623 310.22244 
L 430.21609 421.651487 
z
" clip-path="url(#p32f68e3e07)" style="fill: #456b94"/>
    <path d="M 400.256252 406.082017 
L 436.130409 408.869333 
L 433.02211 183.63795 
L 395.888974 181.20051 
z
" clip-path="url(#p32f68e3e07)" style="fill: #203246"/>
    <path d="M 513.501526 401.818672 
L 508.294836 414.476294 
L 507.73438 188.542104 
L 513.129177 177.472959 
z
" clip-path="url(#p32f68e3e07)" style="fill: #456b94"/>
    <path d="M 654.310842 425.821303 
L 691.171136 428.685238 
L 687.454259 441.820685 
L 650.272544 438.905389 
z
" clip-path="url(#p32f68e3e07)" style="fill: #814c17"/>
    <path d="M 502.996003 427.35792 
L 497.602557 440.469551 
L 497.602557 440.469551 
L 502.996003 427.35792 
z
" clip-path="url(#p32f68e3e07)" style="fill: #334f6d"/>
    <path d="M 398.545539 317.993373 
L 392.225168 330.117959 
L 428.905109 332.819472 
L 434.912903 320.647283 
z
" clip-path="url(#p32f68e3e07)" style="fill: #3c5d80"/>
    <path d="M 617.593896 422.968506 
L 654.310842 425.821303 
L 656.046608 341.086999 
L 618.837785 338.363206 
z
" clip-path="url(#p32f68e3e07)" style="fill: #203246"/>
    <path d="M 654.310842 425.821303 
L 654.740488 404.847407 
L 650.692591 417.787378 
L 650.272544 438.905389 
z
" clip-path="url(#p32f68e3e07)" style="fill: #203246"/>
    <path d="M 502.996003 427.35792 
L 539.599291 430.227864 
L 534.522636 443.391018 
L 497.602557 440.469551 
z
" clip-path="url(#p32f68e3e07)" style="fill: #2a4159"/>
    <path d="M 502.996003 427.35792 
L 497.602557 440.469551 
L 534.522636 443.391018 
L 539.599291 430.227864 
z
" clip-path="url(#p32f68e3e07)" style="fill: #3c5d80"/>
    <path d="M 694.822753 415.78042 
L 697.945745 299.317821 
L 694.2549 311.410321 
L 691.171136 428.685238 
z
" clip-path="url(#p32f68e3e07)" style="fill: #653b12"/>
    <path d="M 617.901796 402.026133 
L 613.532888 414.915439 
L 650.692591 417.787378 
L 654.740488 404.847407 
z
" clip-path="url(#p32f68e3e07)" style="fill: #3c5d80"/>
    <path d="M 436.130409 408.869333 
L 433.02211 183.63795 
L 470.303615 186.085128 
L 472.143003 411.667404 
z
" clip-path="url(#p32f68e3e07)" style="fill: #d67d26"/>
    <path d="M 549.487251 404.589576 
L 550.381906 179.895542 
L 545.315303 191.008937 
L 544.586718 417.296065 
z
" clip-path="url(#p32f68e3e07)" style="fill: #203246"/>
    <path d="M 549.487251 404.589576 
L 544.586718 417.296065 
L 545.315303 191.008937 
L 550.381906 179.895542 
z
" clip-path="url(#p32f68e3e07)" style="fill: #d67d26"/>
    <path d="M 539.599291 430.227864 
L 539.599291 430.227864 
L 534.522636 443.391018 
L 534.522636 443.391018 
z
" clip-path="url(#p32f68e3e07)" style="fill: #334f6d"/>
    <path d="M 623.164185 326.138917 
L 618.837785 338.363206 
L 656.046608 341.086999 
L 660.051146 328.81461 
z
" clip-path="url(#p32f68e3e07)" style="fill: #3c5d80"/>
    <path d="M 394.03781 418.814867 
L 387.708988 431.77373 
L 385.303082 319.738665 
L 391.764085 307.556062 
z
" clip-path="url(#p32f68e3e07)" style="fill: #456b94"/>
    <path d="M 539.599291 430.227864 
L 576.345913 433.109046 
L 571.588585 446.324027 
L 534.522636 443.391018 
z
" clip-path="url(#p32f68e3e07)" style="fill: #814c17"/>
    <path d="M 585.611432 407.37114 
L 587.783025 182.327776 
L 583.047289 193.485685 
L 581.019464 420.126781 
z
" clip-path="url(#p32f68e3e07)" style="fill: #653b12"/>
    <path d="M 387.708988 431.77373 
L 424.196583 434.660975 
L 418.069057 447.903915 
L 381.266821 444.964679 
z
" clip-path="url(#p32f68e3e07)" style="fill: #2a4159"/>
    <path d="M 613.236714 436.001532 
L 650.272544 438.905389 
L 650.692591 417.787378 
L 613.532888 414.915439 
z
" clip-path="url(#p32f68e3e07)" style="fill: #203246"/>
    <path d="M 654.310842 425.821303 
L 691.171136 428.685238 
L 694.2549 311.410321 
L 656.709511 308.726323 
z
" clip-path="url(#p32f68e3e07)" style="fill: #653b12"/>
    <path d="M 430.21609 421.651487 
L 428.571623 310.22244 
L 422.430833 322.453473 
L 424.196583 434.660975 
z
" clip-path="url(#p32f68e3e07)" style="fill: #203246"/>
    <path d="M 436.130409 408.869333 
L 430.21609 421.651487 
L 426.868515 194.819876 
L 433.02211 183.63795 
z
" clip-path="url(#p32f68e3e07)" style="fill: #d67d26"/>
    <path d="M 654.310842 425.821303 
L 656.792842 304.658363 
L 694.362036 307.335958 
L 691.171136 428.685238 
z
" clip-path="url(#p32f68e3e07)" style="fill: #d67d26"/>
    <path d="M 613.236714 436.001532 
L 613.72558 401.196674 
L 650.96588 404.047698 
L 650.272544 438.905389 
z
" clip-path="url(#p32f68e3e07)" style="fill: #456b94"/>
    <path d="M 508.294836 414.476294 
L 544.586718 417.296065 
L 545.315303 191.008937 
L 507.73438 188.542104 
z
" clip-path="url(#p32f68e3e07)" style="fill: #203246"/>
    <path d="M 497.602557 440.469551 
L 534.522636 443.391018 
L 534.522636 443.391018 
L 497.602557 440.469551 
z
" clip-path="url(#p32f68e3e07)" style="fill: #334f6d"/>
    <path d="M 424.196583 434.660975 
L 460.827491 437.559559 
L 455.017142 450.8548 
L 418.069057 447.903915 
z
" clip-path="url(#p32f68e3e07)" style="fill: #814c17"/>
    <path d="M 472.143003 411.667404 
L 470.303615 186.085128 
L 464.478626 197.311982 
L 466.535213 424.49915 
z
" clip-path="url(#p32f68e3e07)" style="fill: #653b12"/>
    <path d="M 613.236714 436.001532 
L 650.272544 438.905389 
L 646.161569 452.224948 
L 608.801272 449.268648 
z
" clip-path="url(#p32f68e3e07)" style="fill: #2a4159"/>
    <path d="M 497.602557 440.469551 
L 497.512854 418.992317 
L 534.558028 421.881209 
L 534.522636 443.391018 
z
" clip-path="url(#p32f68e3e07)" style="fill: #456b94"/>
    <path d="M 544.586718 417.296065 
L 581.019464 420.126781 
L 583.047289 193.485685 
L 545.315303 191.008937 
z
" clip-path="url(#p32f68e3e07)" style="fill: #653b12"/>
    <path d="M 544.586718 417.296065 
L 545.315303 191.008937 
L 583.047289 193.485685 
L 581.019464 420.126781 
z
" clip-path="url(#p32f68e3e07)" style="fill: #d67d26"/>
    <path d="M 387.708988 431.77373 
L 424.196583 434.660975 
L 422.430833 322.453473 
L 385.303082 319.738665 
z
" clip-path="url(#p32f68e3e07)" style="fill: #203246"/>
    <path d="M 654.310842 425.821303 
L 650.272544 438.905389 
L 652.699435 316.892765 
L 656.792842 304.658363 
z
" clip-path="url(#p32f68e3e07)" style="fill: #d67d26"/>
    <path d="M 613.236714 436.001532 
L 608.801272 449.268648 
L 609.270009 414.222904 
L 613.72558 401.196674 
z
" clip-path="url(#p32f68e3e07)" style="fill: #456b94"/>
    <path d="M 387.708988 431.77373 
L 385.196551 314.77784 
L 422.352644 317.484833 
L 424.196583 434.660975 
z
" clip-path="url(#p32f68e3e07)" style="fill: #456b94"/>
    <path d="M 650.272544 438.905389 
L 687.454259 441.820685 
L 683.670357 455.192999 
L 646.161569 452.224948 
z
" clip-path="url(#p32f68e3e07)" style="fill: #814c17"/>
    <path d="M 430.21609 421.651487 
L 427.084717 209.469746 
L 464.611458 211.985769 
L 466.535213 424.49915 
z
" clip-path="url(#p32f68e3e07)" style="fill: #d67d26"/>
    <path d="M 660.728073 296.681549 
L 656.709511 308.726323 
L 694.2549 311.410321 
L 697.945745 299.317821 
z
" clip-path="url(#p32f68e3e07)" style="fill: #ba6d21"/>
    <path d="M 497.602557 440.469551 
L 534.522636 443.391018 
L 529.354338 456.791792 
L 492.111943 453.817402 
z
" clip-path="url(#p32f68e3e07)" style="fill: #2a4159"/>
    <path d="M 430.21609 421.651487 
L 466.535213 424.49915 
L 464.478626 197.311982 
L 426.868515 194.819876 
z
" clip-path="url(#p32f68e3e07)" style="fill: #653b12"/>
    <path d="M 691.171136 428.685238 
L 694.362036 307.335958 
L 690.60259 319.619308 
L 687.454259 441.820685 
z
" clip-path="url(#p32f68e3e07)" style="fill: #653b12"/>
    <path d="M 650.272544 438.905389 
L 650.96588 404.047698 
L 646.838386 417.125704 
L 646.161569 452.224948 
z
" clip-path="url(#p32f68e3e07)" style="fill: #203246"/>
    <path d="M 497.602557 440.469551 
L 492.111943 453.817402 
L 492.002667 432.191649 
L 497.512854 418.992317 
z
" clip-path="url(#p32f68e3e07)" style="fill: #456b94"/>
    <path d="M 544.586718 417.296065 
L 539.599291 430.227864 
L 540.155637 202.326462 
L 545.315303 191.008937 
z
" clip-path="url(#p32f68e3e07)" style="fill: #d67d26"/>
    <path d="M 534.522636 443.391018 
L 571.588585 446.324027 
L 566.745207 459.77804 
L 529.354338 456.791792 
z
" clip-path="url(#p32f68e3e07)" style="fill: #814c17"/>
    <path d="M 402.252557 170.262537 
L 395.888974 181.20051 
L 433.02211 183.63795 
L 439.065374 172.656513 
z
" clip-path="url(#p32f68e3e07)" style="fill: #3c5d80"/>
    <path d="M 387.708988 431.77373 
L 381.266821 444.964679 
L 378.611707 327.146869 
L 385.196551 314.77784 
z
" clip-path="url(#p32f68e3e07)" style="fill: #456b94"/>
    <path d="M 613.72558 401.196674 
L 609.270009 414.222904 
L 646.838386 417.125704 
L 650.96588 404.047698 
z
" clip-path="url(#p32f68e3e07)" style="fill: #3c5d80"/>
    <path d="M 391.764085 307.556062 
L 385.303082 319.738665 
L 422.430833 322.453473 
L 428.571623 310.22244 
z
" clip-path="url(#p32f68e3e07)" style="fill: #3c5d80"/>
    <path d="M 534.522636 443.391018 
L 534.558028 421.881209 
L 529.372355 435.133053 
L 529.354338 456.791792 
z
" clip-path="url(#p32f68e3e07)" style="fill: #203246"/>
    <path d="M 430.21609 421.651487 
L 424.196583 434.660975 
L 420.833791 220.966807 
L 427.084717 209.469746 
z
" clip-path="url(#p32f68e3e07)" style="fill: #d67d26"/>
    <path d="M 581.019464 420.126781 
L 583.047289 193.485685 
L 578.22439 204.848959 
L 576.345913 433.109046 
z
" clip-path="url(#p32f68e3e07)" style="fill: #653b12"/>
    <path d="M 650.272544 438.905389 
L 652.436046 330.134702 
L 690.260893 332.882177 
L 687.454259 441.820685 
z
" clip-path="url(#p32f68e3e07)" style="fill: #d67d26"/>
    <path d="M 381.266821 444.964679 
L 418.069057 447.903915 
L 411.830579 461.38665 
L 374.708236 458.394004 
z
" clip-path="url(#p32f68e3e07)" style="fill: #2a4159"/>
    <path d="M 497.512854 418.992317 
L 492.002667 432.191649 
L 529.372355 435.133053 
L 534.558028 421.881209 
z
" clip-path="url(#p32f68e3e07)" style="fill: #3c5d80"/>
    <path d="M 650.272544 438.905389 
L 687.454259 441.820685 
L 690.60259 319.619308 
L 652.699435 316.892765 
z
" clip-path="url(#p32f68e3e07)" style="fill: #653b12"/>
    <path d="M 608.801272 449.268648 
L 609.252227 415.552425 
L 646.812709 418.457268 
L 646.161569 452.224948 
z
" clip-path="url(#p32f68e3e07)" style="fill: #456b94"/>
    <path d="M 539.599291 430.227864 
L 540.086776 230.534339 
L 577.991872 233.10297 
L 576.345913 433.109046 
z
" clip-path="url(#p32f68e3e07)" style="fill: #d67d26"/>
    <path d="M 608.801272 449.268648 
L 646.161569 452.224948 
L 646.838386 417.125704 
L 609.270009 414.222904 
z
" clip-path="url(#p32f68e3e07)" style="fill: #203246"/>
    <path d="M 424.196583 434.660975 
L 422.352644 317.484833 
L 416.094126 329.90352 
L 418.069057 447.903915 
z
" clip-path="url(#p32f68e3e07)" style="fill: #203246"/>
    <path d="M 466.535213 424.49915 
L 464.611458 211.985769 
L 458.693487 223.529344 
L 460.827491 437.559559 
z
" clip-path="url(#p32f68e3e07)" style="fill: #653b12"/>
    <path d="M 418.069057 447.903915 
L 455.017142 450.8548 
L 449.101373 464.391262 
L 411.830579 461.38665 
z
" clip-path="url(#p32f68e3e07)" style="fill: #814c17"/>
    <path d="M 381.266821 444.964679 
L 379.368384 360.723577 
L 416.656973 363.533146 
L 418.069057 447.903915 
z
" clip-path="url(#p32f68e3e07)" style="fill: #456b94"/>
    <path d="M 608.801272 449.268648 
L 646.161569 452.224948 
L 641.975938 465.786394 
L 604.285442 462.776217 
z
" clip-path="url(#p32f68e3e07)" style="fill: #2a4159"/>
    <path d="M 492.111943 453.817402 
L 529.354338 456.791792 
L 529.372355 435.133053 
L 492.002667 432.191649 
z
" clip-path="url(#p32f68e3e07)" style="fill: #203246"/>
    <path d="M 539.599291 430.227864 
L 576.345913 433.109046 
L 578.22439 204.848959 
L 540.155637 202.326462 
z
" clip-path="url(#p32f68e3e07)" style="fill: #653b12"/>
    <path d="M 650.272544 438.905389 
L 646.161569 452.224948 
L 648.273744 342.689027 
L 652.436046 330.134702 
z
" clip-path="url(#p32f68e3e07)" style="fill: #d67d26"/>
    <path d="M 492.111943 453.817402 
L 491.970655 425.856271 
L 529.377634 428.787956 
L 529.354338 456.791792 
z
" clip-path="url(#p32f68e3e07)" style="fill: #456b94"/>
    <path d="M 608.801272 449.268648 
L 604.285442 462.776217 
L 604.716246 428.82538 
L 609.252227 415.552425 
z
" clip-path="url(#p32f68e3e07)" style="fill: #456b94"/>
    <path d="M 539.599291 430.227864 
L 534.522636 443.391018 
L 534.85356 242.272132 
L 540.086776 230.534339 
z
" clip-path="url(#p32f68e3e07)" style="fill: #d67d26"/>
    <path d="M 381.266821 444.964679 
L 418.069057 447.903915 
L 416.094126 329.90352 
L 378.611707 327.146869 
z
" clip-path="url(#p32f68e3e07)" style="fill: #203246"/>
    <path d="M 646.161569 452.224948 
L 683.670357 455.192999 
L 679.8176 468.808645 
L 641.975938 465.786394 
z
" clip-path="url(#p32f68e3e07)" style="fill: #814c17"/>
    <path d="M 513.129177 177.472959 
L 507.73438 188.542104 
L 545.315303 191.008937 
L 550.381906 179.895542 
z
" clip-path="url(#p32f68e3e07)" style="fill: #3c5d80"/>
    <path d="M 424.196583 434.660975 
L 460.827491 437.559559 
L 458.693487 223.529344 
L 420.833791 220.966807 
z
" clip-path="url(#p32f68e3e07)" style="fill: #653b12"/>
    <path d="M 687.454259 441.820685 
L 690.260893 332.882177 
L 686.43713 345.487086 
L 683.670357 455.192999 
z
" clip-path="url(#p32f68e3e07)" style="fill: #653b12"/>
    <path d="M 381.266821 444.964679 
L 374.708236 458.394004 
L 372.70444 373.56166 
L 379.368384 360.723577 
z
" clip-path="url(#p32f68e3e07)" style="fill: #456b94"/>
    <path d="M 656.792842 304.658363 
L 652.699435 316.892765 
L 690.60259 319.619308 
L 694.362036 307.335958 
z
" clip-path="url(#p32f68e3e07)" style="fill: #ba6d21"/>
    <path d="M 492.111943 453.817402 
L 529.354338 456.791792 
L 524.091892 470.436679 
L 486.521511 467.407915 
z
" clip-path="url(#p32f68e3e07)" style="fill: #2a4159"/>
    <path d="M 424.196583 434.660975 
L 420.601537 206.207832 
L 458.54609 208.746114 
L 460.827491 437.559559 
z
" clip-path="url(#p32f68e3e07)" style="fill: #d67d26"/>
    <path d="M 646.161569 452.224948 
L 646.812709 418.457268 
L 642.610492 431.783448 
L 641.975938 465.786394 
z
" clip-path="url(#p32f68e3e07)" style="fill: #203246"/>
    <path d="M 576.345913 433.109046 
L 577.991872 233.10297 
L 573.098528 244.888442 
L 571.588585 446.324027 
z
" clip-path="url(#p32f68e3e07)" style="fill: #653b12"/>
    <path d="M 550.381906 179.895542 
L 545.315303 191.008937 
L 583.047289 193.485685 
L 587.783025 182.327776 
z
" clip-path="url(#p32f68e3e07)" style="fill: #ba6d21"/>
    <path d="M 492.111943 453.817402 
L 486.521511 467.407915 
L 486.354008 439.252078 
L 491.970655 425.856271 
z
" clip-path="url(#p32f68e3e07)" style="fill: #456b94"/>
    <path d="M 418.069057 447.903915 
L 416.656973 363.533146 
L 410.321687 376.422971 
L 411.830579 461.38665 
z
" clip-path="url(#p32f68e3e07)" style="fill: #203246"/>
    <path d="M 529.354338 456.791792 
L 566.745207 459.77804 
L 561.813423 473.477628 
L 524.091892 470.436679 
z
" clip-path="url(#p32f68e3e07)" style="fill: #814c17"/>
    <path d="M 646.161569 452.224948 
L 648.068166 353.350175 
L 686.167831 356.16511 
L 683.670357 455.192999 
z
" clip-path="url(#p32f68e3e07)" style="fill: #d67d26"/>
    <path d="M 609.252227 415.552425 
L 604.716246 428.82538 
L 642.610492 431.783448 
L 646.812709 418.457268 
z
" clip-path="url(#p32f68e3e07)" style="fill: #3c5d80"/>
    <path d="M 604.285442 462.776217 
L 604.513193 444.827591 
L 642.311403 447.810311 
L 641.975938 465.786394 
z
" clip-path="url(#p32f68e3e07)" style="fill: #456b94"/>
    <path d="M 646.161569 452.224948 
L 683.670357 455.192999 
L 686.43713 345.487086 
L 648.273744 342.689027 
z
" clip-path="url(#p32f68e3e07)" style="fill: #653b12"/>
    <path d="M 374.708236 458.394004 
L 411.830579 461.38665 
L 405.478106 475.11575 
L 368.030049 472.068226 
z
" clip-path="url(#p32f68e3e07)" style="fill: #2a4159"/>
    <path d="M 529.354338 456.791792 
L 529.377634 428.787956 
L 524.091892 442.237597 
L 524.091892 470.436679 
z
" clip-path="url(#p32f68e3e07)" style="fill: #203246"/>
    <path d="M 374.708236 458.394004 
L 373.288815 398.301645 
L 410.76174 401.201727 
L 411.830579 461.38665 
z
" clip-path="url(#p32f68e3e07)" style="fill: #456b94"/>
    <path d="M 385.196551 314.77784 
L 378.611707 327.146869 
L 416.094126 329.90352 
L 422.352644 317.484833 
z
" clip-path="url(#p32f68e3e07)" style="fill: #3c5d80"/>
    <path d="M 641.975938 465.786394 
L 641.975938 465.786394 
L 679.8176 468.808645 
L 679.8176 468.808645 
z
" clip-path="url(#p32f68e3e07)" style="fill: #9d5c1c"/>
    <path d="M 424.196583 434.660975 
L 418.069057 447.903915 
L 414.218015 217.807565 
L 420.601537 206.207832 
z
" clip-path="url(#p32f68e3e07)" style="fill: #d67d26"/>
    <path d="M 604.285442 462.776217 
L 641.975938 465.786394 
L 642.610492 431.783448 
L 604.716246 428.82538 
z
" clip-path="url(#p32f68e3e07)" style="fill: #203246"/>
    <path d="M 534.522636 443.391018 
L 571.588585 446.324027 
L 573.098528 244.888442 
L 534.85356 242.272132 
z
" clip-path="url(#p32f68e3e07)" style="fill: #653b12"/>
    <path d="M 433.02211 183.63795 
L 426.868515 194.819876 
L 464.478626 197.311982 
L 470.303615 186.085128 
z
" clip-path="url(#p32f68e3e07)" style="fill: #ba6d21"/>
    <path d="M 491.970655 425.856271 
L 486.354008 439.252078 
L 524.091892 442.237597 
L 529.377634 428.787956 
z
" clip-path="url(#p32f68e3e07)" style="fill: #3c5d80"/>
    <path d="M 486.521511 467.407915 
L 486.521511 467.407915 
L 524.091892 470.436679 
L 524.091892 470.436679 
z
" clip-path="url(#p32f68e3e07)" style="fill: #334f6d"/>
    <path d="M 411.830579 461.38665 
L 449.101373 464.391262 
L 443.077289 478.175572 
L 405.478106 475.11575 
z
" clip-path="url(#p32f68e3e07)" style="fill: #814c17"/>
    <path d="M 374.708236 458.394004 
L 411.830579 461.38665 
L 410.321687 376.422971 
L 372.70444 373.56166 
z
" clip-path="url(#p32f68e3e07)" style="fill: #203246"/>
    <path d="M 534.522636 443.391018 
L 534.877347 227.815144 
L 573.207074 230.407716 
L 571.588585 446.324027 
z
" clip-path="url(#p32f68e3e07)" style="fill: #d67d26"/>
    <path d="M 646.161569 452.224948 
L 641.975938 465.786394 
L 643.834142 366.21344 
L 648.068166 353.350175 
z
" clip-path="url(#p32f68e3e07)" style="fill: #d67d26"/>
    <path d="M 460.827491 437.559559 
L 458.54609 208.746114 
L 452.503003 220.39332 
L 455.017142 450.8548 
z
" clip-path="url(#p32f68e3e07)" style="fill: #653b12"/>
    <path d="M 604.285442 462.776217 
L 641.975938 465.786394 
L 637.713598 479.596377 
L 599.687018 476.530836 
z
" clip-path="url(#p32f68e3e07)" style="fill: #2a4159"/>
    <path d="M 604.285442 462.776217 
L 599.687018 476.530836 
L 599.903678 458.457024 
L 604.513193 444.827591 
z
" clip-path="url(#p32f68e3e07)" style="fill: #456b94"/>
    <path d="M 486.521511 467.407915 
L 524.091892 470.436679 
L 524.091892 442.237597 
L 486.354008 439.252078 
z
" clip-path="url(#p32f68e3e07)" style="fill: #203246"/>
    <path d="M 374.708236 458.394004 
L 368.030049 472.068226 
L 366.533522 411.553818 
L 373.288815 398.301645 
z
" clip-path="url(#p32f68e3e07)" style="fill: #456b94"/>
    <path d="M 641.975938 465.786394 
L 637.713598 479.596377 
L 637.713598 479.596377 
L 641.975938 465.786394 
z
" clip-path="url(#p32f68e3e07)" style="fill: #9d5c1c"/>
    <path d="M 652.436046 330.134702 
L 648.273744 342.689027 
L 686.43713 345.487086 
L 690.260893 332.882177 
z
" clip-path="url(#p32f68e3e07)" style="fill: #ba6d21"/>
    <path d="M 379.368384 360.723577 
L 372.70444 373.56166 
L 410.321687 376.422971 
L 416.656973 363.533146 
z
" clip-path="url(#p32f68e3e07)" style="fill: #3c5d80"/>
    <path d="M 683.670357 455.192999 
L 686.167831 356.16511 
L 682.277301 369.080594 
L 679.8176 468.808645 
z
" clip-path="url(#p32f68e3e07)" style="fill: #653b12"/>
    <path d="M 641.975938 465.786394 
L 679.8176 468.808645 
L 675.894093 482.674326 
L 637.713598 479.596377 
z
" clip-path="url(#p32f68e3e07)" style="fill: #814c17"/>
    <path d="M 641.975938 465.786394 
L 637.713598 479.596377 
L 675.894093 482.674326 
L 679.8176 468.808645 
z
" clip-path="url(#p32f68e3e07)" style="fill: #ba6d21"/>
    <path d="M 486.521511 467.407915 
L 480.828513 481.247767 
L 480.828513 481.247767 
L 486.521511 467.407915 
z
" clip-path="url(#p32f68e3e07)" style="fill: #334f6d"/>
    <path d="M 641.975938 465.786394 
L 642.311403 447.810311 
L 638.039905 461.49476 
L 637.713598 479.596377 
z
" clip-path="url(#p32f68e3e07)" style="fill: #203246"/>
    <path d="M 411.830579 461.38665 
L 410.76174 401.201727 
L 404.338368 414.507593 
L 405.478106 475.11575 
z
" clip-path="url(#p32f68e3e07)" style="fill: #203246"/>
    <path d="M 604.513193 444.827591 
L 599.903678 458.457024 
L 638.039905 461.49476 
L 642.311403 447.810311 
z
" clip-path="url(#p32f68e3e07)" style="fill: #3c5d80"/>
    <path d="M 534.522636 443.391018 
L 529.354338 456.791792 
L 529.534965 239.66332 
L 534.877347 227.815144 
z
" clip-path="url(#p32f68e3e07)" style="fill: #d67d26"/>
    <path d="M 368.030049 472.068226 
L 367.601284 454.730446 
L 405.151568 457.751349 
L 405.478106 475.11575 
z
" clip-path="url(#p32f68e3e07)" style="fill: #456b94"/>
    <path d="M 679.8176 468.808645 
L 679.8176 468.808645 
L 675.894093 482.674326 
L 675.894093 482.674326 
z
" clip-path="url(#p32f68e3e07)" style="fill: #9d5c1c"/>
    <path d="M 486.521511 467.407915 
L 524.091892 470.436679 
L 518.732703 484.33241 
L 480.828513 481.247767 
z
" clip-path="url(#p32f68e3e07)" style="fill: #2a4159"/>
    <path d="M 486.521511 467.407915 
L 480.828513 481.247767 
L 518.732703 484.33241 
L 524.091892 470.436679 
z
" clip-path="url(#p32f68e3e07)" style="fill: #3c5d80"/>
    <path d="M 418.069057 447.903915 
L 455.017142 450.8548 
L 452.503003 220.39332 
L 414.218015 217.807565 
z
" clip-path="url(#p32f68e3e07)" style="fill: #653b12"/>
    <path d="M 418.069057 447.903915 
L 414.218015 217.807565 
L 452.503003 220.39332 
L 455.017142 450.8548 
z
" clip-path="url(#p32f68e3e07)" style="fill: #d67d26"/>
    <path d="M 524.091892 470.436679 
L 524.091892 470.436679 
L 518.732703 484.33241 
L 518.732703 484.33241 
z
" clip-path="url(#p32f68e3e07)" style="fill: #334f6d"/>
    <path d="M 545.315303 191.008937 
L 540.155637 202.326462 
L 578.22439 204.848959 
L 583.047289 193.485685 
z
" clip-path="url(#p32f68e3e07)" style="fill: #ba6d21"/>
    <path d="M 599.687018 476.530836 
L 599.687018 476.530836 
L 637.713598 479.596377 
L 637.713598 479.596377 
z
" clip-path="url(#p32f68e3e07)" style="fill: #334f6d"/>
    <path d="M 571.588585 446.324027 
L 573.207074 230.407716 
L 568.212251 242.304576 
L 566.745207 459.77804 
z
" clip-path="url(#p32f68e3e07)" style="fill: #653b12"/>
    <path d="M 524.091892 470.436679 
L 561.813423 473.477628 
L 556.79079 487.429578 
L 518.732703 484.33241 
z
" clip-path="url(#p32f68e3e07)" style="fill: #814c17"/>
    <path d="M 427.084717 209.469746 
L 420.833791 220.966807 
L 458.693487 223.529344 
L 464.611458 211.985769 
z
" clip-path="url(#p32f68e3e07)" style="fill: #ba6d21"/>
    <path d="M 641.975938 465.786394 
L 679.8176 468.808645 
L 682.277301 369.080594 
L 643.834142 366.21344 
z
" clip-path="url(#p32f68e3e07)" style="fill: #653b12"/>
    <path d="M 599.687018 476.530836 
L 637.713598 479.596377 
L 638.039905 461.49476 
L 599.903678 458.457024 
z
" clip-path="url(#p32f68e3e07)" style="fill: #203246"/>
    <path d="M 368.030049 472.068226 
L 405.478106 475.11575 
L 399.008487 489.098031 
L 361.228958 485.994106 
z
" clip-path="url(#p32f68e3e07)" style="fill: #2a4159"/>
    <path d="M 368.030049 472.068226 
L 405.478106 475.11575 
L 404.338368 414.507593 
L 366.533522 411.553818 
z
" clip-path="url(#p32f68e3e07)" style="fill: #203246"/>
    <path d="M 368.030049 472.068226 
L 361.228958 485.994106 
L 360.777379 468.534956 
L 367.601284 454.730446 
z
" clip-path="url(#p32f68e3e07)" style="fill: #456b94"/>
    <path d="M 637.713598 479.596377 
L 675.894093 482.674326 
L 675.894093 482.674326 
L 637.713598 479.596377 
z
" clip-path="url(#p32f68e3e07)" style="fill: #9d5c1c"/>
    <path d="M 637.713598 479.596377 
L 637.713598 479.596377 
L 675.894093 482.674326 
L 675.894093 482.674326 
z
" clip-path="url(#p32f68e3e07)" style="fill: #9d5c1c"/>
    <path d="M 373.288815 398.301645 
L 366.533522 411.553818 
L 404.338368 414.507593 
L 410.76174 401.201727 
z
" clip-path="url(#p32f68e3e07)" style="fill: #3c5d80"/>
    <path d="M 418.069057 447.903915 
L 411.830579 461.38665 
L 407.714666 229.625039 
L 414.218015 217.807565 
z
" clip-path="url(#p32f68e3e07)" style="fill: #d67d26"/>
    <path d="M 480.828513 481.247767 
L 518.732703 484.33241 
L 518.732703 484.33241 
L 480.828513 481.247767 
z
" clip-path="url(#p32f68e3e07)" style="fill: #334f6d"/>
    <path d="M 529.354338 456.791792 
L 529.526803 249.474013 
L 568.14596 252.131499 
L 566.745207 459.77804 
z
" clip-path="url(#p32f68e3e07)" style="fill: #d67d26"/>
    <path d="M 599.687018 476.530836 
L 595.003714 490.539346 
L 595.003714 490.539346 
L 599.687018 476.530836 
z
" clip-path="url(#p32f68e3e07)" style="fill: #334f6d"/>
    <path d="M 405.478106 475.11575 
L 443.077289 478.175572 
L 436.941887 492.214598 
L 399.008487 489.098031 
z
" clip-path="url(#p32f68e3e07)" style="fill: #814c17"/>
    <path d="M 529.354338 456.791792 
L 566.745207 459.77804 
L 568.212251 242.304576 
L 529.534965 239.66332 
z
" clip-path="url(#p32f68e3e07)" style="fill: #653b12"/>
    <path d="M 648.068166 353.350175 
L 643.834142 366.21344 
L 682.277301 369.080594 
L 686.167831 356.16511 
z
" clip-path="url(#p32f68e3e07)" style="fill: #ba6d21"/>
    <path d="M 405.478106 475.11575 
L 405.151568 457.751349 
L 398.660954 471.611924 
L 399.008487 489.098031 
z
" clip-path="url(#p32f68e3e07)" style="fill: #203246"/>
    <path d="M 367.601284 454.730446 
L 360.777379 468.534956 
L 398.660954 471.611924 
L 405.151568 457.751349 
z
" clip-path="url(#p32f68e3e07)" style="fill: #3c5d80"/>
    <path d="M 455.017142 450.8548 
L 452.503003 220.39332 
L 446.346245 232.25961 
L 449.101373 464.391262 
z
" clip-path="url(#p32f68e3e07)" style="fill: #653b12"/>
    <path d="M 540.086776 230.534339 
L 534.85356 242.272132 
L 573.098528 244.888442 
L 577.991872 233.10297 
z
" clip-path="url(#p32f68e3e07)" style="fill: #ba6d21"/>
    <path d="M 599.687018 476.530836 
L 637.713598 479.596377 
L 633.372421 493.661792 
L 595.003714 490.539346 
z
" clip-path="url(#p32f68e3e07)" style="fill: #2a4159"/>
    <path d="M 599.687018 476.530836 
L 595.003714 490.539346 
L 633.372421 493.661792 
L 637.713598 479.596377 
z
" clip-path="url(#p32f68e3e07)" style="fill: #3c5d80"/>
    <path d="M 518.732703 484.33241 
L 518.732703 484.33241 
L 556.79079 487.429578 
L 556.79079 487.429578 
z
" clip-path="url(#p32f68e3e07)" style="fill: #9d5c1c"/>
    <path d="M 637.713598 479.596377 
L 637.713598 479.596377 
L 633.372421 493.661792 
L 633.372421 493.661792 
z
" clip-path="url(#p32f68e3e07)" style="fill: #334f6d"/>
    <path d="M 637.713598 479.596377 
L 633.372421 493.661792 
L 633.372421 493.661792 
L 637.713598 479.596377 
z
" clip-path="url(#p32f68e3e07)" style="fill: #9d5c1c"/>
    <path d="M 411.830579 461.38665 
L 408.069151 249.585624 
L 446.583548 252.253404 
L 449.101373 464.391262 
z
" clip-path="url(#p32f68e3e07)" style="fill: #d67d26"/>
    <path d="M 637.713598 479.596377 
L 675.894093 482.674326 
L 671.897867 496.796993 
L 633.372421 493.661792 
z
" clip-path="url(#p32f68e3e07)" style="fill: #814c17"/>
    <path d="M 637.713598 479.596377 
L 633.372421 493.661792 
L 671.897867 496.796993 
L 675.894093 482.674326 
z
" clip-path="url(#p32f68e3e07)" style="fill: #ba6d21"/>
    <path d="M 529.354338 456.791792 
L 524.091892 470.436679 
L 524.091892 261.619539 
L 529.526803 249.474013 
z
" clip-path="url(#p32f68e3e07)" style="fill: #d67d26"/>
    <path d="M 361.228958 485.994106 
L 399.008487 489.098031 
L 398.660954 471.611924 
L 360.777379 468.534956 
z
" clip-path="url(#p32f68e3e07)" style="fill: #203246"/>
    <path d="M 480.828513 481.247767 
L 480.43743 424.28545 
L 518.684159 427.281584 
L 518.732703 484.33241 
z
" clip-path="url(#p32f68e3e07)" style="fill: #456b94"/>
    <path d="M 675.894093 482.674326 
L 675.894093 482.674326 
L 671.897867 496.796993 
L 671.897867 496.796993 
z
" clip-path="url(#p32f68e3e07)" style="fill: #9d5c1c"/>
    <path d="M 480.828513 481.247767 
L 518.732703 484.33241 
L 513.274077 498.485967 
L 475.030101 495.343884 
z
" clip-path="url(#p32f68e3e07)" style="fill: #2a4159"/>
    <path d="M 411.830579 461.38665 
L 449.101373 464.391262 
L 446.346245 232.25961 
L 407.714666 229.625039 
z
" clip-path="url(#p32f68e3e07)" style="fill: #653b12"/>
    <path d="M 518.732703 484.33241 
L 513.274077 498.485967 
L 513.274077 498.485967 
L 518.732703 484.33241 
z
" clip-path="url(#p32f68e3e07)" style="fill: #9d5c1c"/>
    <path d="M 566.745207 459.77804 
L 568.14596 252.131499 
L 563.063894 264.327324 
L 561.813423 473.477628 
z
" clip-path="url(#p32f68e3e07)" style="fill: #653b12"/>
    <path d="M 595.003714 490.539346 
L 595.003714 490.539346 
L 633.372421 493.661792 
L 633.372421 493.661792 
z
" clip-path="url(#p32f68e3e07)" style="fill: #334f6d"/>
    <path d="M 595.003714 490.539346 
L 633.372421 493.661792 
L 633.372421 493.661792 
L 595.003714 490.539346 
z
" clip-path="url(#p32f68e3e07)" style="fill: #334f6d"/>
    <path d="M 518.732703 484.33241 
L 556.79079 487.429578 
L 551.674775 501.640927 
L 513.274077 498.485967 
z
" clip-path="url(#p32f68e3e07)" style="fill: #814c17"/>
    <path d="M 518.732703 484.33241 
L 513.274077 498.485967 
L 551.674775 501.640927 
L 556.79079 487.429578 
z
" clip-path="url(#p32f68e3e07)" style="fill: #ba6d21"/>
    <path d="M 411.830579 461.38665 
L 405.478106 475.11575 
L 401.466295 261.778537 
L 408.069151 249.585624 
z
" clip-path="url(#p32f68e3e07)" style="fill: #d67d26"/>
    <path d="M 556.79079 487.429578 
L 556.79079 487.429578 
L 551.674775 501.640927 
L 551.674775 501.640927 
z
" clip-path="url(#p32f68e3e07)" style="fill: #9d5c1c"/>
    <path d="M 524.091892 470.436679 
L 524.091892 277.560114 
L 562.968431 280.294313 
L 561.813423 473.477628 
z
" clip-path="url(#p32f68e3e07)" style="fill: #d67d26"/>
    <path d="M 633.372421 493.661792 
L 671.897867 496.796993 
L 671.897867 496.796993 
L 633.372421 493.661792 
z
" clip-path="url(#p32f68e3e07)" style="fill: #9d5c1c"/>
    <path d="M 480.828513 481.247767 
L 475.030101 495.343884 
L 474.582459 437.977998 
L 480.43743 424.28545 
z
" clip-path="url(#p32f68e3e07)" style="fill: #456b94"/>
    <path d="M 420.601537 206.207832 
L 414.218015 217.807565 
L 452.503003 220.39332 
L 458.54609 208.746114 
z
" clip-path="url(#p32f68e3e07)" style="fill: #ba6d21"/>
    <path d="M 449.101373 464.391262 
L 446.583548 252.253404 
L 440.331458 264.497005 
L 443.077289 478.175572 
z
" clip-path="url(#p32f68e3e07)" style="fill: #653b12"/>
    <path d="M 524.091892 470.436679 
L 561.813423 473.477628 
L 563.063894 264.327324 
L 524.091892 261.619539 
z
" clip-path="url(#p32f68e3e07)" style="fill: #653b12"/>
    <path d="M 595.003714 490.539346 
L 590.233158 504.808841 
L 590.233158 504.808841 
L 595.003714 490.539346 
z
" clip-path="url(#p32f68e3e07)" style="fill: #334f6d"/>
    <path d="M 518.732703 484.33241 
L 518.684159 427.281584 
L 513.175172 441.030437 
L 513.274077 498.485967 
z
" clip-path="url(#p32f68e3e07)" style="fill: #203246"/>
    <path d="M 595.003714 490.539346 
L 590.233158 504.808841 
L 628.9502 507.989791 
L 633.372421 493.661792 
z
" clip-path="url(#p32f68e3e07)" style="fill: #3c5d80"/>
    <path d="M 595.003714 490.539346 
L 633.372421 493.661792 
L 628.9502 507.989791 
L 590.233158 504.808841 
z
" clip-path="url(#p32f68e3e07)" style="fill: #2a4159"/>
    <path d="M 513.274077 498.485967 
L 551.674775 501.640927 
L 551.674775 501.640927 
L 513.274077 498.485967 
z
" clip-path="url(#p32f68e3e07)" style="fill: #9d5c1c"/>
    <path d="M 524.091892 470.436679 
L 518.732703 484.33241 
L 518.567396 290.056881 
L 524.091892 277.560114 
z
" clip-path="url(#p32f68e3e07)" style="fill: #d67d26"/>
    <path d="M 633.372421 493.661792 
L 633.372421 493.661792 
L 628.9502 507.989791 
L 628.9502 507.989791 
z
" clip-path="url(#p32f68e3e07)" style="fill: #334f6d"/>
    <path d="M 405.478106 475.11575 
L 443.077289 478.175572 
L 440.331458 264.497005 
L 401.466295 261.778537 
z
" clip-path="url(#p32f68e3e07)" style="fill: #653b12"/>
    <path d="M 633.372421 493.661792 
L 671.897867 496.796993 
L 667.826882 511.183857 
L 628.9502 507.989791 
z
" clip-path="url(#p32f68e3e07)" style="fill: #814c17"/>
    <path d="M 534.877347 227.815144 
L 529.534965 239.66332 
L 568.212251 242.304576 
L 573.207074 230.407716 
z
" clip-path="url(#p32f68e3e07)" style="fill: #ba6d21"/>
    <path d="M 480.43743 424.28545 
L 474.582459 437.977998 
L 513.175172 441.030437 
L 518.684159 427.281584 
z
" clip-path="url(#p32f68e3e07)" style="fill: #3c5d80"/>
    <path d="M 561.813423 473.477628 
L 562.968431 280.294313 
L 557.801515 292.843196 
L 556.79079 487.429578 
z
" clip-path="url(#p32f68e3e07)" style="fill: #653b12"/>
    <path d="M 475.030101 495.343884 
L 513.274077 498.485967 
L 513.175172 441.030437 
L 474.582459 437.977998 
z
" clip-path="url(#p32f68e3e07)" style="fill: #203246"/>
    <path d="M 405.478106 475.11575 
L 401.088086 241.666442 
L 440.072579 244.351225 
L 443.077289 478.175572 
z
" clip-path="url(#p32f68e3e07)" style="fill: #d67d26"/>
    <path d="M 392.418449 503.340562 
L 392.418449 503.340562 
L 430.692054 506.515467 
L 430.692054 506.515467 
z
" clip-path="url(#p32f68e3e07)" style="fill: #9d5c1c"/>
    <path d="M 590.233158 504.808841 
L 628.9502 507.989791 
L 628.9502 507.989791 
L 590.233158 504.808841 
z
" clip-path="url(#p32f68e3e07)" style="fill: #334f6d"/>
    <path d="M 518.732703 484.33241 
L 556.79079 487.429578 
L 557.801515 292.843196 
L 518.567396 290.056881 
z
" clip-path="url(#p32f68e3e07)" style="fill: #653b12"/>
    <path d="M 405.478106 475.11575 
L 399.008487 489.098031 
L 394.334738 253.938201 
L 401.088086 241.666442 
z
" clip-path="url(#p32f68e3e07)" style="fill: #d67d26"/>
    <path d="M 414.218015 217.807565 
L 407.714666 229.625039 
L 446.346245 232.25961 
L 452.503003 220.39332 
z
" clip-path="url(#p32f68e3e07)" style="fill: #ba6d21"/>
    <path d="M 469.123319 509.70345 
L 469.123319 509.70345 
L 507.713223 512.904593 
L 507.713223 512.904593 
z
" clip-path="url(#p32f68e3e07)" style="fill: #334f6d"/>
    <path d="M 443.077289 478.175572 
L 440.072579 244.351225 
L 433.678642 256.674644 
L 436.941887 492.214598 
z
" clip-path="url(#p32f68e3e07)" style="fill: #653b12"/>
    <path d="M 507.713223 512.904593 
L 507.713223 512.904593 
L 546.462748 516.118977 
L 546.462748 516.118977 
z
" clip-path="url(#p32f68e3e07)" style="fill: #9d5c1c"/>
    <path d="M 529.526803 249.474013 
L 524.091892 261.619539 
L 563.063894 264.327324 
L 568.14596 252.131499 
z
" clip-path="url(#p32f68e3e07)" style="fill: #ba6d21"/>
    <path d="M 354.301538 500.178655 
L 392.418449 503.340562 
L 378.863418 532.635988 
L 340.053369 529.353135 
z
" clip-path="url(#p32f68e3e07)" style="fill: #2a4159"/>
    <path d="M 392.418449 503.340562 
L 378.863418 532.635988 
L 378.863418 532.635988 
L 392.418449 503.340562 
z
" clip-path="url(#p32f68e3e07)" style="fill: #9d5c1c"/>
    <path d="M 399.008487 489.098031 
L 436.941887 492.214598 
L 433.678642 256.674644 
L 394.334738 253.938201 
z
" clip-path="url(#p32f68e3e07)" style="fill: #653b12"/>
    <path d="M 392.418449 503.340562 
L 430.692054 506.515467 
L 417.836042 535.932592 
L 378.863418 532.635988 
z
" clip-path="url(#p32f68e3e07)" style="fill: #814c17"/>
    <path d="M 392.418449 503.340562 
L 378.863418 532.635988 
L 417.836042 535.932592 
L 430.692054 506.515467 
z
" clip-path="url(#p32f68e3e07)" style="fill: #ba6d21"/>
    <path d="M 408.069151 249.585624 
L 401.466295 261.778537 
L 440.331458 264.497005 
L 446.583548 252.253404 
z
" clip-path="url(#p32f68e3e07)" style="fill: #ba6d21"/>
    <path d="M 585.372888 519.346685 
L 585.372888 519.346685 
L 624.444642 522.587798 
L 624.444642 522.587798 
z
" clip-path="url(#p32f68e3e07)" style="fill: #334f6d"/>
    <path d="M 430.692054 506.515467 
L 430.692054 506.515467 
L 417.836042 535.932592 
L 417.836042 535.932592 
z
" clip-path="url(#p32f68e3e07)" style="fill: #9d5c1c"/>
    <path d="M 633.372421 493.661792 
L 637.468328 257.945467 
L 677.449473 260.698887 
L 671.897867 496.796993 
z
" clip-path="url(#p32f68e3e07)" style="fill: #d67d26"/>
    <path d="M 624.444642 522.587798 
L 624.444642 522.587798 
L 663.679021 525.842402 
L 663.679021 525.842402 
z
" clip-path="url(#p32f68e3e07)" style="fill: #9d5c1c"/>
    <path d="M 469.123319 509.70345 
L 456.972265 539.243036 
L 456.972265 539.243036 
L 469.123319 509.70345 
z
" clip-path="url(#p32f68e3e07)" style="fill: #334f6d"/>
    <path d="M 524.091892 277.560114 
L 518.567396 290.056881 
L 557.801515 292.843196 
L 562.968431 280.294313 
z
" clip-path="url(#p32f68e3e07)" style="fill: #ba6d21"/>
    <path d="M 469.123319 509.70345 
L 507.713223 512.904593 
L 496.273118 542.567405 
L 456.972265 539.243036 
z
" clip-path="url(#p32f68e3e07)" style="fill: #2a4159"/>
    <path d="M 469.123319 509.70345 
L 456.972265 539.243036 
L 496.273118 542.567405 
L 507.713223 512.904593 
z
" clip-path="url(#p32f68e3e07)" style="fill: #3c5d80"/>
    <path d="M 507.713223 512.904593 
L 507.713223 512.904593 
L 496.273118 542.567405 
L 496.273118 542.567405 
z
" clip-path="url(#p32f68e3e07)" style="fill: #334f6d"/>
    <path d="M 507.713223 512.904593 
L 496.273118 542.567405 
L 496.273118 542.567405 
L 507.713223 512.904593 
z
" clip-path="url(#p32f68e3e07)" style="fill: #9d5c1c"/>
    <path d="M 507.713223 512.904593 
L 546.462748 516.118977 
L 535.739643 545.905787 
L 496.273118 542.567405 
z
" clip-path="url(#p32f68e3e07)" style="fill: #814c17"/>
    <path d="M 507.713223 512.904593 
L 496.273118 542.567405 
L 535.739643 545.905787 
L 546.462748 516.118977 
z
" clip-path="url(#p32f68e3e07)" style="fill: #ba6d21"/>
    <path d="M 633.372421 493.661792 
L 628.9502 507.989791 
L 632.918432 270.532151 
L 637.468328 257.945467 
z
" clip-path="url(#p32f68e3e07)" style="fill: #d67d26"/>
    <path d="M 354.301538 500.178655 
L 347.909648 263.669228 
L 387.450949 266.446988 
L 392.418449 503.340562 
z
" clip-path="url(#p32f68e3e07)" style="fill: #456b94"/>
    <path d="M 546.462748 516.118977 
L 546.462748 516.118977 
L 535.739643 545.905787 
L 535.739643 545.905787 
z
" clip-path="url(#p32f68e3e07)" style="fill: #9d5c1c"/>
    <path d="M 671.897867 496.796993 
L 677.449473 260.698887 
L 673.277994 273.339235 
L 667.826882 511.183857 
z
" clip-path="url(#p32f68e3e07)" style="fill: #653b12"/>
    <path d="M 378.863418 532.635988 
L 417.836042 535.932592 
L 417.836042 535.932592 
L 378.863418 532.635988 
z
" clip-path="url(#p32f68e3e07)" style="fill: #9d5c1c"/>
    <path d="M 585.372888 519.346685 
L 575.37289 549.258273 
L 575.37289 549.258273 
L 585.372888 519.346685 
z
" clip-path="url(#p32f68e3e07)" style="fill: #334f6d"/>
    <path d="M 585.372888 519.346685 
L 624.444642 522.587798 
L 615.173917 552.62495 
L 575.37289 549.258273 
z
" clip-path="url(#p32f68e3e07)" style="fill: #2a4159"/>
    <path d="M 585.372888 519.346685 
L 575.37289 549.258273 
L 615.173917 552.62495 
L 624.444642 522.587798 
z
" clip-path="url(#p32f68e3e07)" style="fill: #3c5d80"/>
    <path d="M 624.444642 522.587798 
L 624.444642 522.587798 
L 615.173917 552.62495 
L 615.173917 552.62495 
z
" clip-path="url(#p32f68e3e07)" style="fill: #334f6d"/>
    <path d="M 624.444642 522.587798 
L 615.173917 552.62495 
L 615.173917 552.62495 
L 624.444642 522.587798 
z
" clip-path="url(#p32f68e3e07)" style="fill: #9d5c1c"/>
    <path d="M 628.9502 507.989791 
L 667.826882 511.183857 
L 673.277994 273.339235 
L 632.918432 270.532151 
z
" clip-path="url(#p32f68e3e07)" style="fill: #653b12"/>
    <path d="M 624.444642 522.587798 
L 663.679021 525.842402 
L 655.143792 556.00591 
L 615.173917 552.62495 
z
" clip-path="url(#p32f68e3e07)" style="fill: #814c17"/>
    <path d="M 624.444642 522.587798 
L 615.173917 552.62495 
L 655.143792 556.00591 
L 663.679021 525.842402 
z
" clip-path="url(#p32f68e3e07)" style="fill: #ba6d21"/>
    <path d="M 401.088086 241.666442 
L 394.334738 253.938201 
L 433.678642 256.674644 
L 440.072579 244.351225 
z
" clip-path="url(#p32f68e3e07)" style="fill: #ba6d21"/>
    <path d="M 456.972265 539.243036 
L 496.273118 542.567405 
L 496.273118 542.567405 
L 456.972265 539.243036 
z
" clip-path="url(#p32f68e3e07)" style="fill: #334f6d"/>
    <path d="M 663.679021 525.842402 
L 663.679021 525.842402 
L 655.143792 556.00591 
L 655.143792 556.00591 
z
" clip-path="url(#p32f68e3e07)" style="fill: #9d5c1c"/>
    <path d="M 496.273118 542.567405 
L 535.739643 545.905787 
L 535.739643 545.905787 
L 496.273118 542.567405 
z
" clip-path="url(#p32f68e3e07)" style="fill: #9d5c1c"/>
    <path d="M 354.301538 500.178655 
L 340.053369 529.353135 
L 332.988935 289.315525 
L 347.909648 263.669228 
z
" clip-path="url(#p32f68e3e07)" style="fill: #456b94"/>
    <path d="M 392.418449 503.340562 
L 387.450949 266.446988 
L 373.276633 292.20366 
L 378.863418 532.635988 
z
" clip-path="url(#p32f68e3e07)" style="fill: #203246"/>
    <path d="M 575.37289 549.258273 
L 615.173917 552.62495 
L 615.173917 552.62495 
L 575.37289 549.258273 
z
" clip-path="url(#p32f68e3e07)" style="fill: #334f6d"/>
    <path d="M 615.173917 552.62495 
L 655.143792 556.00591 
L 655.143792 556.00591 
L 615.173917 552.62495 
z
" clip-path="url(#p32f68e3e07)" style="fill: #9d5c1c"/>
    <path d="M 637.468328 257.945467 
L 632.918432 270.532151 
L 673.277994 273.339235 
L 677.449473 260.698887 
z
" clip-path="url(#p32f68e3e07)" style="fill: #ba6d21"/>
    <path d="M 340.053369 529.353135 
L 378.863418 532.635988 
L 373.276633 292.20366 
L 332.988935 289.315525 
z
" clip-path="url(#p32f68e3e07)" style="fill: #203246"/>
    <path d="M 347.909648 263.669228 
L 332.988935 289.315525 
L 373.276633 292.20366 
L 387.450949 266.446988 
z
" clip-path="url(#p32f68e3e07)" style="fill: #3c5d80"/>
   </g>
   <g id="text_22">
    <!-- Survival Rate by Age (Solid 3D View) -->
    <g style="fill: #262626" transform="translate(368.69625 80.4) scale(0.18 -0.18)">
     <defs>
      <path id="ArialMT-62" d="M 941 0 
L 419 0 
L 419 4581 
L 981 4581 
L 981 2947 
Q 1338 3394 1891 3394 
Q 2197 3394 2470 3270 
Q 2744 3147 2920 2923 
Q 3097 2700 3197 2384 
Q 3297 2069 3297 1709 
Q 3297 856 2875 390 
Q 2453 -75 1863 -75 
Q 1275 -75 941 416 
L 941 0 
z
M 934 1684 
Q 934 1088 1097 822 
Q 1363 388 1816 388 
Q 2184 388 2453 708 
Q 2722 1028 2722 1663 
Q 2722 2313 2464 2622 
Q 2206 2931 1841 2931 
Q 1472 2931 1203 2611 
Q 934 2291 934 1684 
z
" transform="scale(0.015625)"/>
      <path id="ArialMT-79" d="M 397 -1278 
L 334 -750 
Q 519 -800 656 -800 
Q 844 -800 956 -737 
Q 1069 -675 1141 -563 
Q 1194 -478 1313 -144 
Q 1328 -97 1363 -6 
L 103 3319 
L 709 3319 
L 1400 1397 
Q 1534 1031 1641 628 
Q 1738 1016 1872 1384 
L 2581 3319 
L 3144 3319 
L 1881 -56 
Q 1678 -603 1566 -809 
Q 1416 -1088 1222 -1217 
Q 1028 -1347 759 -1347 
Q 597 -1347 397 -1278 
z
" transform="scale(0.015625)"/>
      <path id="ArialMT-6f" d="M 213 1659 
Q 213 2581 725 3025 
Q 1153 3394 1769 3394 
Q 2453 3394 2887 2945 
Q 3322 2497 3322 1706 
Q 3322 1066 3130 698 
Q 2938 331 2570 128 
Q 2203 -75 1769 -75 
Q 1072 -75 642 372 
Q 213 819 213 1659 
z
M 791 1659 
Q 791 1022 1069 705 
Q 1347 388 1769 388 
Q 2188 388 2466 706 
Q 2744 1025 2744 1678 
Q 2744 2294 2464 2611 
Q 2184 2928 1769 2928 
Q 1347 2928 1069 2612 
Q 791 2297 791 1659 
z
" transform="scale(0.015625)"/>
      <path id="ArialMT-64" d="M 2575 0 
L 2575 419 
Q 2259 -75 1647 -75 
Q 1250 -75 917 144 
Q 584 363 401 755 
Q 219 1147 219 1656 
Q 219 2153 384 2558 
Q 550 2963 881 3178 
Q 1213 3394 1622 3394 
Q 1922 3394 2156 3267 
Q 2391 3141 2538 2938 
L 2538 4581 
L 3097 4581 
L 3097 0 
L 2575 0 
z
M 797 1656 
Q 797 1019 1065 703 
Q 1334 388 1700 388 
Q 2069 388 2326 689 
Q 2584 991 2584 1609 
Q 2584 2291 2321 2609 
Q 2059 2928 1675 2928 
Q 1300 2928 1048 2622 
Q 797 2316 797 1656 
z
" transform="scale(0.015625)"/>
      <path id="ArialMT-44" d="M 494 0 
L 494 4581 
L 2072 4581 
Q 2606 4581 2888 4516 
Q 3281 4425 3559 4188 
Q 3922 3881 4101 3404 
Q 4281 2928 4281 2316 
Q 4281 1794 4159 1391 
Q 4038 988 3847 723 
Q 3656 459 3429 307 
Q 3203 156 2883 78 
Q 2563 0 2147 0 
L 494 0 
z
M 1100 541 
L 2078 541 
Q 2531 541 2789 625 
Q 3047 709 3200 863 
Q 3416 1078 3536 1442 
Q 3656 1806 3656 2325 
Q 3656 3044 3420 3430 
Q 3184 3816 2847 3947 
Q 2603 4041 2063 4041 
L 1100 4041 
L 1100 541 
z
" transform="scale(0.015625)"/>
      <path id="ArialMT-56" d="M 1803 0 
L 28 4581 
L 684 4581 
L 1875 1253 
Q 2019 853 2116 503 
Q 2222 878 2363 1253 
L 3600 4581 
L 4219 4581 
L 2425 0 
L 1803 0 
z
" transform="scale(0.015625)"/>
      <path id="ArialMT-77" d="M 1034 0 
L 19 3319 
L 600 3319 
L 1128 1403 
L 1325 691 
Q 1338 744 1497 1375 
L 2025 3319 
L 2603 3319 
L 3100 1394 
L 3266 759 
L 3456 1400 
L 4025 3319 
L 4572 3319 
L 3534 0 
L 2950 0 
L 2422 1988 
L 2294 2553 
L 1622 0 
L 1034 0 
z
" transform="scale(0.015625)"/>
     </defs>
     <use xlink:href="#ArialMT-53"/>
     <use xlink:href="#ArialMT-75" transform="translate(66.699219 0)"/>
     <use xlink:href="#ArialMT-72" transform="translate(122.314453 0)"/>
     <use xlink:href="#ArialMT-76" transform="translate(155.615234 0)"/>
     <use xlink:href="#ArialMT-69" transform="translate(205.615234 0)"/>
     <use xlink:href="#ArialMT-76" transform="translate(227.832031 0)"/>
     <use xlink:href="#ArialMT-61" transform="translate(277.832031 0)"/>
     <use xlink:href="#ArialMT-6c" transform="translate(333.447266 0)"/>
     <use xlink:href="#ArialMT-20" transform="translate(355.664062 0)"/>
     <use xlink:href="#ArialMT-52" transform="translate(383.447266 0)"/>
     <use xlink:href="#ArialMT-61" transform="translate(455.664062 0)"/>
     <use xlink:href="#ArialMT-74" transform="translate(511.279297 0)"/>
     <use xlink:href="#ArialMT-65" transform="translate(539.0625 0)"/>
     <use xlink:href="#ArialMT-20" transform="translate(594.677734 0)"/>
     <use xlink:href="#ArialMT-62" transform="translate(622.460938 0)"/>
     <use xlink:href="#ArialMT-79" transform="translate(678.076172 0)"/>
     <use xlink:href="#ArialMT-20" transform="translate(728.076172 0)"/>
     <use xlink:href="#ArialMT-41" transform="translate(750.359375 0)"/>
     <use xlink:href="#ArialMT-67" transform="translate(817.058594 0)"/>
     <use xlink:href="#ArialMT-65" transform="translate(872.673828 0)"/>
     <use xlink:href="#ArialMT-20" transform="translate(928.289062 0)"/>
     <use xlink:href="#ArialMT-28" transform="translate(956.072266 0)"/>
     <use xlink:href="#ArialMT-53" transform="translate(989.373047 0)"/>
     <use xlink:href="#ArialMT-6f" transform="translate(1056.072266 0)"/>
     <use xlink:href="#ArialMT-6c" transform="translate(1111.6875 0)"/>
     <use xlink:href="#ArialMT-69" transform="translate(1133.904297 0)"/>
     <use xlink:href="#ArialMT-64" transform="translate(1156.121094 0)"/>
     <use xlink:href="#ArialMT-20" transform="translate(1211.736328 0)"/>
     <use xlink:href="#ArialMT-33" transform="translate(1239.519531 0)"/>
     <use xlink:href="#ArialMT-44" transform="translate(1295.134766 0)"/>
     <use xlink:href="#ArialMT-20" transform="translate(1367.351562 0)"/>
     <use xlink:href="#ArialMT-56" transform="translate(1395.134766 0)"/>
     <use xlink:href="#ArialMT-69" transform="translate(1460.083984 0)"/>
     <use xlink:href="#ArialMT-65" transform="translate(1482.300781 0)"/>
     <use xlink:href="#ArialMT-77" transform="translate(1537.916016 0)"/>
     <use xlink:href="#ArialMT-29" transform="translate(1610.132812 0)"/>
    </g>
   </g>
  </g>
 </g>
 <defs>
  <clipPath id="p32f68e3e07">
   <rect x="239.4" y="86.4" width="554.4" height="554.4"/>
  </clipPath>
 </defs>
</svg>
